<?xml version="1.0" standalone="no"?>
<!DOCTYPE svg PUBLIC "-//W3C//DTD SVG 20010904//EN"
 "http://www.w3.org/TR/2001/REC-SVG-20010904/DTD/svg10.dtd">
<svg version="1.0" xmlns="http://www.w3.org/2000/svg"
 width="560.000000pt" height="560.000000pt" viewBox="0 0 560.000000 560.000000"
 preserveAspectRatio="xMidYMid meet">
<metadata>
Created by potrace 1.14, written by Peter Selinger 2001-2017
</metadata>
<g transform="translate(0.000000,560.000000) scale(0.100000,-0.100000)"
fill="#000000" stroke="none">
<path d="M10 2800 l0 -2790 2790 0 c2756 0 2791 0 2780 19 -7 13 -7 22 0 26 7
4 10 927 10 2771 l0 2764 -2790 0 -2790 0 0 -2790z m2528 2628 c-3 -7 -11 -13
-18 -13 -7 0 -15 6 -17 13 -3 7 4 12 17 12 13 0 20 -5 18 -12z m-80 -15 c-15
-2 -42 -2 -60 0 -18 2 -6 4 27 4 33 0 48 -2 33 -4z m262 -3 c0 -5 -18 -10 -40
-10 -22 0 -40 5 -40 10 0 6 18 10 40 10 22 0 40 -4 40 -10z m467 4 c-3 -3 -12
-4 -19 -1 -8 3 -5 6 6 6 11 1 17 -2 13 -5z m107 -9 c3 -8 1 -15 -4 -15 -6 0
-10 7 -10 15 0 8 2 15 4 15 2 0 6 -7 10 -15z m-1036 -2 c-10 -2 -18 -9 -18
-14 0 -5 -8 -9 -17 -9 -15 0 -14 2 3 15 10 8 26 14 34 14 11 -1 10 -3 -2 -6z
m-195 -10 c-13 -2 -33 -2 -45 0 -13 2 -3 4 22 4 25 0 35 -2 23 -4z m417 -13
c0 -5 -15 -10 -34 -10 -19 0 -42 -3 -52 -7 -16 -6 -17 -5 -4 10 16 18 90 24
90 7z m685 0 c-3 -5 -13 -10 -21 -10 -8 0 -14 5 -14 10 0 6 9 10 21 10 11 0
17 -4 14 -10z m35 0 c0 -5 8 -10 17 -10 9 0 14 -3 10 -6 -8 -8 -47 5 -47 17 0
5 5 9 10 9 6 0 10 -4 10 -10z m-1005 -10 c-3 -5 -13 -10 -21 -10 -8 0 -14 5
-14 10 0 6 9 10 21 10 11 0 17 -4 14 -10z m-132 -7 c-13 -2 -33 -2 -45 0 -13
2 -3 4 22 4 25 0 35 -2 23 -4z m640 0 c-13 -2 -33 -2 -45 0 -13 2 -3 4 22 4
25 0 35 -2 23 -4z m-543 -29 c0 -8 -5 -12 -10 -9 -6 4 -8 11 -5 16 9 14 15 11
15 -7z m-963 -20 c-2 -2 -12 -1 -22 3 -18 6 -18 7 1 13 17 7 33 -5 21 -16z
m663 17 c0 -6 -4 -13 -10 -16 -5 -3 -10 1 -10 9 0 9 5 16 10 16 6 0 10 -4 10
-9z m60 -7 c0 -8 -4 -12 -10 -9 -5 3 -10 10 -10 16 0 5 5 9 10 9 6 0 10 -7 10
-16z m95 -4 c3 -5 1 -10 -4 -10 -6 0 -11 5 -11 10 0 6 2 10 4 10 3 0 8 -4 11
-10z m-895 -20 c0 -5 -9 -10 -21 -10 -11 0 -17 5 -14 10 3 6 13 10 21 10 8 0
14 -4 14 -10z m2820 -5 c0 -8 -9 -15 -20 -15 -17 0 -19 2 -8 15 17 19 28 19
28 0z m137 -11 c-3 -3 -12 -4 -19 -1 -8 3 -5 6 6 6 11 1 17 -2 13 -5z m-1607
-11 c-8 -3 -26 -14 -39 -24 -32 -25 -39 -24 -33 6 4 22 9 25 46 24 22 0 34 -3
26 -6z m1714 -22 c3 -5 -1 -11 -9 -15 -9 -3 -15 0 -15 9 0 16 16 20 24 6z
m-2104 -11 c0 -5 -4 -10 -10 -10 -5 0 -10 5 -10 10 0 6 5 10 10 10 6 0 10 -4
10 -10z m188 1 c10 -6 9 -10 -7 -14 -14 -3 -21 0 -21 9 0 16 9 18 28 5z m-239
-31 c15 0 37 -8 48 -18 17 -15 18 -19 6 -30 -7 -7 -30 -15 -51 -18 l-37 -5 33
18 c17 9 32 20 32 24 0 4 -28 11 -62 15 -58 7 -61 8 -35 18 15 5 28 15 28 20
1 6 3 3 6 -6 3 -12 14 -18 32 -18z m2222 -2 c-18 -5 -47 -7 -65 -5 -26 3 -24
4 12 5 30 2 42 6 42 17 0 13 4 14 23 4 22 -12 21 -13 -12 -21z m-3331 12 c0
-5 10 -10 22 -10 12 0 19 -3 16 -6 -9 -8 -78 7 -78 17 0 5 9 9 20 9 11 0 20
-4 20 -10z m1560 -10 c0 -5 -5 -10 -11 -10 -5 0 -7 5 -4 10 3 6 8 10 11 10 2
0 4 -4 4 -10z m-577 -7 c-13 -2 -33 -2 -45 0 -13 2 -3 4 22 4 25 0 35 -2 23
-4z m2521 -32 c3 -5 -1 -11 -9 -15 -9 -3 -15 0 -15 9 0 16 16 20 24 6z m-3662
-33 c-6 -6 -15 -8 -19 -4 -4 4 -1 11 7 16 19 12 27 3 12 -12z m1118 -3 c0 -8
-7 -15 -15 -15 -8 0 -15 7 -15 15 0 8 7 15 15 15 8 0 15 -7 15 -15z m40 0 c0
-8 -4 -15 -10 -15 -5 0 -7 7 -4 15 4 8 8 15 10 15 2 0 4 -7 4 -15z m480 -4 c0
-10 -26 -21 -45 -20 -5 0 -13 -8 -17 -18 -7 -17 -8 -17 -5 1 1 11 11 20 22 22
11 2 21 8 23 13 4 13 22 14 22 2z m2063 -8 c-13 -2 -33 -2 -45 0 -13 2 -3 4
22 4 25 0 35 -2 23 -4z m106 -2 c7 -5 9 -11 5 -14 -5 -3 -15 1 -22 9 -14 16
-5 18 17 5z m-2289 -7 c0 0 -8 -8 -18 -17 -16 -15 -18 -15 -18 1 0 10 8 18 18
18 10 0 18 -1 18 -2z m1063 -1 c-13 -2 -33 -2 -45 0 -13 2 -3 4 22 4 25 0 35
-2 23 -4z m-1248 -13 c-3 -5 -1 -10 5 -10 6 0 8 -5 4 -11 -4 -8 -9 -7 -15 2
-7 12 -3 29 7 29 3 0 2 -4 -1 -10z m399 -20 c-6 -6 -15 -5 -24 1 -12 9 -12 10
4 5 14 -5 17 -3 12 11 -6 15 -5 16 5 6 8 -8 10 -16 3 -23z m243 24 c-3 -3 -12
-4 -19 -1 -8 3 -5 6 6 6 11 1 17 -2 13 -5z m-2047 -19 c0 -8 -7 -15 -16 -15
-14 0 -14 3 -4 15 7 8 14 15 16 15 2 0 4 -7 4 -15z m1455 -3 c-3 -3 -11 0 -18
7 -9 10 -8 11 6 5 10 -3 15 -9 12 -12z m35 14 c0 -3 -4 -8 -10 -11 -5 -3 -10
-1 -10 4 0 6 5 11 10 11 6 0 10 -2 10 -4z m98 -18 c-7 -13 -11 -26 -10 -30 1
-5 -5 -8 -13 -8 -13 0 -11 6 7 30 26 35 34 39 16 8z m150 7 c-2 -1 -13 -7 -25
-13 -18 -10 -20 -9 -16 7 3 13 11 17 24 14 11 -3 18 -7 17 -8z m162 -3 c11
-12 9 -13 -11 -7 -43 13 -57 25 -28 23 14 -1 31 -8 39 -16z m-602 -4 c-9 -7
-18 -20 -21 -28 -4 -10 -6 -8 -6 6 -1 24 7 34 28 34 13 0 13 -2 -1 -12z m534
-6 c-7 -2 -10 -8 -7 -12 3 -5 1 -11 -5 -15 -11 -7 -13 5 -4 29 3 9 11 13 17 9
8 -5 7 -8 -1 -11z m2118 -7 c0 -23 -4 -25 -42 -24 -24 0 -36 3 -28 6 8 3 26
14 39 24 30 24 31 24 31 -6z m-2005 5 c3 -5 1 -10 -4 -10 -6 0 -11 5 -11 10 0
6 2 10 4 10 3 0 8 -4 11 -10z m2052 -6 c-3 -3 -12 -4 -19 -1 -8 3 -5 6 6 6 11
1 17 -2 13 -5z m-2124 -11 c-15 -3 -23 -12 -24 -26 0 -12 -3 -16 -6 -9 -9 22
5 42 29 41 l23 -2 -22 -4z m62 -13 c13 -6 15 -9 5 -9 -8 0 -22 4 -30 9 -18 12
-2 12 25 0z m-1202 -7 c-13 -2 -33 -2 -45 0 -13 2 -3 4 22 4 25 0 35 -2 23 -4z
m622 -3 c-3 -5 -12 -10 -18 -10 -7 0 -6 4 3 10 19 12 23 12 15 0z m2695 6 c0
-3 -4 -8 -10 -11 -5 -3 -10 -1 -10 4 0 6 5 11 10 11 6 0 10 -2 10 -4z m-2155
-24 c-3 -3 -11 0 -18 7 -9 10 -8 11 6 5 10 -3 15 -9 12 -12z m159 -1 c11 -4
15 -10 9 -14 -5 -3 -19 0 -29 8 -20 15 -11 18 20 6z m1079 2 c-13 -2 -33 -2
-45 0 -13 2 -3 4 22 4 25 0 35 -2 23 -4z m-1819 -18 c-10 -8 -23 -14 -29 -14
-5 0 -1 6 9 14 11 8 24 15 30 15 5 0 1 -7 -10 -15z m683 -12 c-8 -7 -37 9 -31
19 3 5 12 4 20 -3 8 -6 13 -14 11 -16z m2116 -10 c-3 -8 -21 -13 -47 -12 -22
0 -34 3 -26 6 8 3 26 14 39 25 26 19 45 9 34 -19z m-4263 7 c0 -5 -7 -10 -16
-10 -8 0 -12 5 -9 10 3 6 10 10 16 10 5 0 9 -4 9 -10z m2090 -10 c0 -5 3 -9 8
-8 4 1 18 -3 32 -9 47 -19 55 -20 68 -4 8 9 11 11 8 4 -4 -6 0 -14 6 -16 7 -3
4 -6 -7 -7 -20 -1 -20 -1 -1 -15 11 -8 15 -15 9 -15 -7 0 -18 7 -27 15 -8 8
-18 15 -22 15 -18 0 -94 33 -94 41 0 5 5 9 10 9 6 0 10 -4 10 -10z m-694 -72
c-20 -29 -36 -45 -36 -36 0 9 3 18 8 20 12 5 52 66 53 80 0 9 2 10 5 1 3 -7
-11 -36 -30 -65z m2104 58 c0 -2 -9 -6 -20 -9 -11 -3 -20 -1 -20 4 0 5 9 9 20
9 11 0 20 -2 20 -4z m-2970 -35 c0 -5 -7 -11 -15 -15 -9 -3 -15 0 -15 9 0 8 7
15 15 15 8 0 15 -4 15 -9z m3090 -6 c0 -9 -6 -12 -15 -9 -8 4 -15 10 -15 15 0
5 7 9 15 9 8 0 15 -7 15 -15z m-1545 -25 c25 -11 -1 -11 -35 0 -20 6 -21 8 -5
8 11 0 29 -3 40 -8z m225 -52 c11 -24 14 -36 7 -28 -15 17 -39 70 -32 70 2 0
14 -19 25 -42z m1477 36 c-3 -3 -12 -4 -19 -1 -8 3 -5 6 6 6 11 1 17 -2 13 -5z
m-1752 -14 c3 -6 -1 -7 -9 -4 -18 7 -21 14 -7 14 6 0 13 -4 16 -10z m120 0 c3
-6 -1 -7 -9 -4 -18 7 -21 14 -7 14 6 0 13 -4 16 -10z m-1775 -19 c0 -5 -7 -11
-15 -15 -9 -3 -15 0 -15 9 0 8 7 15 15 15 8 0 15 -4 15 -9z m1014 -31 c-6 -6
-10 -2 -11 12 -2 16 1 18 10 9 7 -7 8 -14 1 -21z m-1524 0 c0 -5 -4 -10 -10
-10 -5 0 -10 5 -10 10 0 6 5 10 10 10 6 0 10 -4 10 -10z m2201 -35 c19 -8 27
-14 19 -14 -26 -1 -60 11 -60 20 0 12 2 12 41 -6z m254 -5 c3 -5 1 -10 -4 -10
-6 0 -11 5 -11 10 0 6 2 10 4 10 3 0 8 -4 11 -10z m1622 -6 c-3 -3 -12 -4 -19
-1 -8 3 -5 6 6 6 11 1 17 -2 13 -5z m-4157 -24 c0 -19 -1 -19 -20 -3 -11 10
-20 19 -20 20 0 2 9 3 20 3 13 0 20 -7 20 -20z m2515 0 c-3 -5 -11 -10 -16
-10 -6 0 -7 5 -4 10 3 6 11 10 16 10 6 0 7 -4 4 -10z m26 -17 c-12 -20 -14
-14 -5 12 4 9 9 14 11 11 3 -2 0 -13 -6 -23z m2339 17 c0 -5 -2 -10 -4 -10 -3
0 -8 5 -11 10 -3 6 -1 10 4 10 6 0 11 -4 11 -10z m-4940 -14 c0 -2 -7 -7 -16
-10 -8 -3 -12 -2 -9 4 6 10 25 14 25 6z m4315 -16 c3 -5 1 -10 -4 -10 -6 0
-11 5 -11 10 0 6 2 10 4 10 3 0 8 -4 11 -10z m655 6 c0 -2 -7 -9 -15 -16 -12
-10 -15 -10 -15 4 0 9 7 16 15 16 8 0 15 -2 15 -4z m-590 -31 c0 -19 -11 -19
-36 0 -18 14 -18 14 9 15 17 0 27 -5 27 -15z m-2732 -46 c-3 -33 -4 -33 -8 8
-3 23 -2 39 3 34 5 -5 7 -24 5 -42z m3398 24 c10 -16 7 -18 -23 -20 -34 -2
-34 -1 -17 18 21 23 26 24 40 2z m-5066 -13 c0 -5 -4 -10 -10 -10 -5 0 -10 5
-10 10 0 6 5 10 10 10 6 0 10 -4 10 -10z m2524 -10 c5 -5 -8 -5 -30 1 -21 6
-41 14 -44 16 -9 10 64 -7 74 -17z m-2624 -34 c0 -3 -4 -8 -10 -11 -5 -3 -10
-1 -10 4 0 6 5 11 10 11 6 0 10 -2 10 -4z m5260 -26 c0 -13 -7 -20 -20 -20
-19 0 -19 1 -3 20 10 11 19 20 20 20 2 0 3 -9 3 -20z m-2580 -40 c5 -10 10
-22 10 -27 -1 -4 -8 4 -16 20 -8 16 -23 27 -35 27 -11 0 -17 5 -14 10 8 13 41
-4 55 -30z m-2677 23 c-13 -2 -33 -2 -45 0 -13 2 -3 4 22 4 25 0 35 -2 23 -4z
m1735 -28 c-6 -14 -13 -23 -15 -21 -5 5 15 46 22 46 3 0 -1 -11 -7 -25z m1036
-20 c3 -8 1 -15 -4 -15 -6 0 -10 7 -10 15 0 8 2 15 4 15 2 0 6 -7 10 -15z
m2609 -9 c4 -10 1 -13 -9 -9 -7 3 -14 9 -14 14 0 14 17 10 23 -5z m-2700 -58
c-10 -21 -10 -21 -9 9 1 19 5 28 10 23 6 -6 5 -18 -1 -32z m-2343 16 c0 -14
-3 -14 -15 -4 -8 7 -15 14 -15 16 0 2 7 4 15 4 8 0 15 -7 15 -16z m4427 10
c-3 -3 -12 -4 -19 -1 -8 3 -5 6 6 6 11 1 17 -2 13 -5z m-4487 -59 c10 -12 10
-15 -4 -15 -9 0 -16 7 -16 15 0 8 2 15 4 15 2 0 9 -7 16 -15z m2507 -17 c-3
-7 -5 -2 -5 12 0 14 2 19 5 13 2 -7 2 -19 0 -25z m-126 -12 c-14 -36 -22 -33
-9 5 6 16 12 28 14 26 3 -2 0 -16 -5 -31z m2209 -6 c0 -5 -2 -10 -4 -10 -3 0
-8 5 -11 10 -3 6 -1 10 4 10 6 0 11 -4 11 -10z m-2089 -33 c-10 -9 -11 -8 -5
6 3 10 9 15 12 12 3 -3 0 -11 -7 -18z m-72 -62 c-2 -24 0 -47 4 -51 4 -4 7
-12 7 -18 0 -6 -9 0 -20 14 -20 26 -26 45 -11 36 5 -3 9 0 8 7 -1 29 3 57 9
57 3 0 4 -20 3 -45z m62 9 c-5 -16 -10 -21 -10 -12 -1 18 10 51 15 45 2 -1 -1
-16 -5 -33z m2239 22 c0 -2 -7 -9 -15 -16 -12 -10 -15 -10 -15 4 0 9 7 16 15
16 8 0 15 -2 15 -4z m50 -61 c0 -8 -7 -15 -16 -15 -14 0 -14 3 -4 15 7 8 14
15 16 15 2 0 4 -7 4 -15z m-3266 -11 c3 -8 2 -12 -4 -9 -6 3 -10 10 -10 16 0
14 7 11 14 -7z m973 -25 c2 -25 9 -46 19 -54 14 -10 15 -13 3 -20 -8 -5 -11
-5 -7 -1 3 4 -2 16 -13 27 -11 11 -19 33 -19 54 0 49 14 44 17 -6z m-2583 16
c-4 -8 -11 -12 -16 -9 -6 4 -5 10 3 15 19 12 19 11 13 -6z m-69 -65 c3 -5 1
-10 -4 -10 -6 0 -11 5 -11 10 0 6 2 10 4 10 3 0 8 -4 11 -10z m2612 -96 c-3
-3 -12 -4 -19 -1 -8 3 -5 6 6 6 11 1 17 -2 13 -5z m154 -11 c13 -15 12 -15
-11 -3 -34 17 -36 20 -18 20 9 0 22 -7 29 -17z m-183 -13 c12 -10 29 -34 37
-54 8 -19 19 -37 24 -40 5 -4 12 -19 16 -36 3 -16 15 -40 26 -54 28 -36 4 -44
-31 -11 -16 16 -27 32 -24 36 3 5 -10 18 -28 30 -33 21 -33 21 -5 16 30 -5 45
9 29 25 -8 8 -16 8 -24 1 -18 -13 -90 -33 -119 -33 -19 0 -21 2 -9 10 8 5 27
10 43 10 15 0 27 4 27 9 0 5 -10 7 -22 3 -14 -3 -19 -1 -14 6 4 6 22 14 41 18
43 8 50 17 28 35 -15 12 -16 12 -10 -4 6 -15 3 -17 -14 -12 -15 5 -19 4 -15
-4 4 -6 3 -11 -2 -11 -5 0 -9 13 -9 30 0 26 2 28 14 12 12 -16 13 -16 6 2 -4
13 -3 17 5 12 7 -4 12 -2 12 4 0 7 -6 10 -13 7 -8 -3 -20 -1 -28 4 -10 6 -7 9
11 9 14 -1 35 -9 48 -20z m-809 -50 c12 -30 21 -62 20 -70 0 -15 -49 107 -49
124 0 17 8 2 29 -54z m926 31 c-3 -6 -11 -11 -17 -11 -6 0 -6 6 2 15 14 17 26
13 15 -4z m108 -21 c16 -16 25 -30 20 -30 -13 0 -53 39 -53 50 0 14 2 13 33
-20z m-293 9 c0 -5 -6 -7 -12 -3 -9 5 -9 2 1 -9 12 -15 11 -17 -3 -17 -9 0
-16 8 -16 20 0 11 7 20 15 20 8 0 15 -5 15 -11z m-2636 -34 c-4 -8 -10 -15
-15 -15 -5 0 -9 7 -9 15 0 8 7 15 15 15 9 0 12 -6 9 -15z m2830 -11 c9 -3 16
-14 15 -23 0 -10 -2 -11 -6 -3 -2 6 -11 12 -19 12 -8 0 -14 5 -14 10 0 12 3
12 24 4z m-89 -74 c3 -5 1 -10 -4 -10 -6 0 -11 5 -11 10 0 6 2 10 4 10 3 0 8
-4 11 -10z m149 -6 c3 -8 2 -12 -4 -9 -6 3 -10 10 -10 16 0 14 7 11 14 -7z
m-930 -59 c14 -14 22 -25 18 -25 -10 0 -25 12 -41 33 -20 25 -6 21 23 -8z
m1092 3 c12 -14 13 -18 3 -10 -9 6 -19 9 -22 5 -4 -3 -7 1 -7 10 0 22 3 21 26
-5z m-371 -8 c3 -5 2 -10 -4 -10 -5 0 -13 5 -16 10 -3 6 -2 10 4 10 5 0 13 -4
16 -10z m170 -9 c-3 -5 0 -13 6 -17 6 -3 15 -1 19 5 5 9 15 5 36 -14 16 -15
23 -24 17 -20 -15 7 -18 -11 -3 -20 6 -3 10 -12 10 -18 0 -7 -6 -4 -14 5 -7
10 -16 16 -19 13 -4 -3 -5 -2 -2 2 3 3 -13 18 -35 33 -22 15 -37 30 -33 33 10
10 25 8 18 -2z m215 -46 c26 -31 -7 -14 -41 22 l-34 36 31 -21 c17 -12 37 -28
44 -37z m-307 -24 c-5 -7 -56 34 -62 50 -2 7 12 0 31 -16 19 -17 33 -32 31
-34z m223 23 c19 -17 22 -22 8 -16 -20 10 -52 42 -42 42 3 0 18 -12 34 -26z
m-162 -25 c-2 -3 18 -20 45 -37 27 -18 54 -39 62 -48 7 -9 -19 5 -58 32 -39
26 -70 51 -67 55 2 4 -3 9 -11 13 -8 3 -15 10 -15 16 0 6 11 3 24 -7 13 -10
22 -21 20 -24z m24 21 c32 -30 27 -38 -5 -9 -16 13 -30 25 -32 27 -2 1 0 2 5
2 6 0 20 -9 32 -20z m346 -16 c5 -14 4 -15 -9 -4 -17 14 -19 20 -6 20 5 0 12
-7 15 -16z m-172 -76 c-1 -5 3 -8 9 -8 6 0 9 -7 6 -14 -4 -9 -1 -13 6 -10 11
4 33 -24 145 -181 17 -24 20 -37 14 -55 l-9 -24 -6 26 c-6 23 -53 65 -63 56
-2 -3 10 -31 27 -62 23 -42 34 -54 40 -44 5 7 9 9 9 3 0 -5 -4 -16 -9 -24 -10
-15 -10 -15 -52 67 -19 39 -25 60 -18 68 7 8 7 14 -1 19 -5 3 -10 12 -10 18 0
7 9 -1 19 -16 10 -16 21 -25 23 -20 7 12 -35 68 -52 68 -8 0 -16 7 -16 15 -3
33 -5 34 -14 20 -8 -11 -9 -7 -4 14 5 22 4 27 -6 21 -9 -6 -11 -4 -5 5 5 9 2
10 -14 5 -21 -6 -26 1 -22 33 1 7 -4 11 -11 10 -6 -2 -12 3 -13 10 0 7 -4 16
-10 20 -10 7 -35 47 -35 57 0 2 17 -12 37 -33 21 -20 37 -40 35 -44z m38 15
c0 -8 -38 17 -51 33 -9 11 -2 9 19 -6 17 -13 32 -25 32 -27z m-240 -8 c8 -5
22 -9 30 -10 8 0 39 -16 68 -34 61 -40 196 -212 211 -271 16 -59 24 -137 12
-120 -5 8 -7 18 -4 22 2 5 -1 15 -7 23 -7 8 -10 15 -7 15 3 0 1 15 -4 33 -6
17 -12 40 -14 49 -5 24 -55 96 -55 79 0 -11 -3 -11 -15 -1 -8 7 -15 8 -15 2 0
-5 7 -15 15 -22 11 -9 15 -9 15 -1 0 7 5 9 10 6 17 -10 11 -25 -9 -25 -10 0
-21 7 -25 15 -3 8 -11 14 -18 13 -8 -2 -13 10 -14 34 0 30 2 36 13 27 17 -15
16 1 -1 23 -7 10 -17 14 -21 10 -5 -4 -5 -2 -2 4 4 6 -2 19 -13 29 -22 20 -28
8 -7 -15 10 -12 9 -12 -4 -2 -9 6 -19 9 -23 5 -4 -4 -4 1 0 11 5 14 4 17 -4
12 -7 -4 -12 -2 -12 4 0 7 -7 10 -15 6 -13 -4 -13 -2 -5 14 8 15 6 20 -10 25
-11 3 -20 11 -20 16 0 5 -6 9 -12 9 -7 -1 -2 -10 11 -20 18 -15 21 -23 12 -33
-6 -8 -8 -17 -4 -20 3 -4 1 -7 -5 -7 -16 0 -24 18 -10 23 10 3 10 7 0 20 -8 9
-20 13 -27 11 -8 -4 -15 3 -17 18 -2 19 -8 23 -38 21 -20 -1 -29 1 -22 6 16
10 43 8 62 -4z m400 0 c-7 -8 -17 -15 -23 -15 -6 0 -2 7 9 15 25 19 30 19 14
0z m-379 -68 c-10 -9 -11 -8 -5 6 3 10 9 15 12 12 3 -3 0 -11 -7 -18z m279 13
c0 -5 -5 -10 -11 -10 -5 0 -7 5 -4 10 3 6 8 10 11 10 2 0 4 -4 4 -10z m-643
-14 c0 -8 -6 -12 -15 -9 -11 5 -11 7 0 14 7 5 13 9 14 9 0 0 1 -6 1 -14z m697
-68 c11 -10 24 -18 29 -18 4 0 6 -9 2 -19 -4 -14 0 -21 13 -26 12 -3 22 -17
24 -35 4 -24 2 -27 -9 -18 -8 6 -12 17 -9 25 3 8 2 11 -4 8 -5 -3 -14 5 -21
17 -7 13 -28 43 -48 68 -33 42 -25 41 23 -2z m117 25 c13 -16 12 -17 -3 -4
-10 7 -18 15 -18 17 0 8 8 3 21 -13z m-906 -13 c3 -5 -1 -10 -9 -10 -9 0 -16
5 -16 10 0 6 4 10 9 10 6 0 13 -4 16 -10z m886 -7 c13 -16 12 -17 -3 -4 -17
13 -22 21 -14 21 2 0 10 -8 17 -17z m-316 -3 c3 -5 1 -10 -4 -10 -6 0 -11 5
-11 10 0 6 2 10 4 10 3 0 8 -4 11 -10z m-34 -23 c-10 -9 -11 -8 -5 6 3 10 9
15 12 12 3 -3 0 -11 -7 -18z m50 -10 c-10 -9 -11 -8 -5 6 3 10 9 15 12 12 3
-3 0 -11 -7 -18z m330 -9 c11 -21 11 -22 -4 -9 -10 7 -17 17 -17 22 0 15 9 10
21 -13z m70 -83 c5 4 6 -1 2 -10 -5 -13 -7 -14 -14 -3 -5 7 -8 18 -8 23 0 6 3
4 6 -3 2 -6 9 -10 14 -7z m-287 -25 c-6 -6 -10 -2 -11 12 -2 16 1 18 10 9 7
-7 8 -14 1 -21z m150 4 c4 -10 1 -14 -6 -12 -15 5 -23 28 -10 28 5 0 13 -7 16
-16z m62 -6 c4 -7 3 -8 -4 -4 -7 4 -12 2 -12 -4 0 -6 -4 -8 -10 -5 -5 3 -10
10 -10 16 0 13 27 11 36 -3z m52 -13 c-3 -3 -9 2 -12 12 -6 14 -5 15 5 6 7 -7
10 -15 7 -18z m-68 -45 c22 -31 23 -67 1 -62 -6 1 -11 -3 -10 -10 1 -7 1 -20
0 -28 -1 -13 -3 -13 -10 -1 -10 15 6 61 21 61 5 0 6 5 3 10 -4 6 -12 7 -18 4
-7 -4 -9 -3 -4 1 4 5 0 19 -8 32 -23 34 0 28 25 -7z m-68 -90 c3 -17 2 -33 -2
-35 -3 -2 -7 12 -8 31 -3 42 4 45 10 4z m35 -52 c2 -18 0 -20 -7 -8 -12 18
-13 30 -2 30 4 0 9 -10 9 -22z m-33 -49 c-9 -10 -19 -17 -22 -15 -2 3 3 12 11
21 9 8 14 23 11 33 -5 15 -4 14 6 -1 9 -15 8 -22 -6 -38z m-1083 8 c-10 -9
-11 -8 -5 6 3 10 9 15 12 12 3 -3 0 -11 -7 -18z m-886 -207 c-3 -5 -12 -10
-18 -10 -7 0 -6 4 3 10 19 12 23 12 15 0z m370 -8 c-3 -3 -11 0 -18 7 -9 10
-8 11 6 5 10 -3 15 -9 12 -12z m93 -3 c-7 -5 -22 -6 -33 -2 -19 5 -19 5 -3
-13 14 -17 15 -21 2 -38 -8 -11 -14 -14 -14 -8 0 7 -4 12 -9 12 -5 0 -11 -18
-13 -40 l-4 -40 53 0 53 0 0 40 c0 28 -4 40 -14 40 -23 0 -27 29 -5 40 11 6
17 16 13 23 -5 9 -4 9 6 0 7 -6 20 -9 28 -5 14 5 15 4 2 -10 -8 -9 -17 -12
-20 -8 -3 5 -14 2 -24 -6 -18 -13 -15 -14 35 -14 47 -1 52 -2 37 -14 -25 -18
-27 -186 -3 -186 8 0 15 -4 15 -10 0 -16 -97 -12 -103 4 -4 10 0 12 14 9 16
-5 19 0 19 36 l0 41 -53 0 -53 0 4 -41 c3 -28 8 -39 18 -35 8 3 11 0 7 -10 -3
-9 -20 -14 -49 -14 -38 0 -44 3 -50 24 -3 14 -4 33 -1 43 3 10 5 4 6 -14 0
-18 6 -33 11 -33 6 0 10 37 10 91 0 75 -2 90 -14 86 -10 -4 -13 -1 -9 9 6 17
93 20 93 3 0 -5 5 -7 12 -3 8 5 5 13 -10 25 -18 14 -19 18 -7 23 8 3 22 2 32
-1 11 -4 14 -3 9 5 -5 8 -2 10 9 5 13 -5 14 -7 3 -14z m-606 -11 c-7 -7 -12
-8 -12 -2 0 14 12 26 19 19 2 -3 -1 -11 -7 -17z m182 14 c2 -4 -4 -8 -14 -8
-10 0 -16 4 -14 8 3 4 9 8 14 8 5 0 11 -4 14 -8z m546 -22 c8 -5 11 -10 5 -10
-5 0 -17 5 -25 10 -8 5 -10 10 -5 10 6 0 17 -5 25 -10z m1521 -14 c-9 -11 -9
-15 1 -19 7 -2 3 -2 -9 0 -23 3 -23 2 -23 -97 0 -55 -3 -100 -7 -99 -5 0 -34
31 -67 69 -32 38 -62 67 -67 64 -5 -3 -6 1 -3 9 3 8 -1 19 -8 25 -10 8 -13 -5
-11 -66 0 -45 6 -78 12 -80 23 -8 10 -21 -19 -19 -30 2 -38 11 -20 22 6 3 10
43 10 87 0 65 -3 83 -17 94 -16 12 -14 13 17 13 31 0 42 -9 98 -76 l62 -75 0
66 c0 52 -3 66 -15 66 -35 0 -11 19 28 23 23 2 44 4 46 5 2 1 -2 -4 -8 -12z
m-2118 -7 c29 -16 37 -28 37 -61 0 -30 -40 -58 -83 -58 -20 0 -24 -5 -25 -31
0 -18 5 -32 14 -36 31 -11 11 -23 -38 -23 -46 1 -51 2 -35 14 14 11 17 29 17
101 0 68 -3 86 -13 82 -8 -3 -14 1 -14 9 0 18 108 20 140 3z m1037 -6 c77 -45
63 -164 -23 -192 -33 -11 -98 -11 -91 0 2 3 -7 16 -20 28 -90 85 27 228 134
164z m420 -88 c0 -65 4 -95 13 -98 6 -3 -8 -6 -33 -6 -25 0 -40 3 -33 7 14 9
21 156 9 183 -6 13 -2 16 18 12 26 -5 26 -7 26 -98z m100 83 c24 -26 18 -38
-8 -15 -10 10 -26 17 -36 17 -9 0 -14 5 -11 10 10 16 33 11 55 -12z m434 7
c-4 -8 -11 -12 -16 -9 -6 4 -5 10 3 15 19 12 19 11 13 -6z m516 5 c0 -5 -7
-10 -15 -10 -12 0 -15 -16 -15 -85 0 -67 3 -87 15 -91 30 -12 14 -24 -30 -24
-25 0 -45 5 -45 10 0 6 5 10 10 10 6 0 10 37 10 91 0 75 -2 90 -14 86 -10 -4
-13 -1 -9 9 6 16 93 20 93 4z m390 1 c0 -5 -5 -11 -12 -13 -9 -3 -6 -14 9 -37
13 -21 23 -29 28 -22 4 7 1 20 -7 29 -11 15 -11 16 3 4 13 -10 19 -9 30 5 11
13 11 17 2 20 -28 10 -10 23 30 23 l42 0 -32 -26 c-31 -24 -47 -54 -21 -38 7
4 8 3 4 -5 -4 -6 -11 -9 -16 -6 -4 3 -13 -2 -20 -11 -11 -12 -8 -22 17 -57 17
-23 34 -41 39 -40 6 1 11 -7 11 -18 2 -16 -5 -19 -43 -19 -41 0 -60 13 -32 22
8 3 6 14 -7 36 -23 38 -37 41 -31 7 3 -15 1 -23 -5 -20 -5 4 -7 12 -3 18 3 7
-4 1 -16 -13 -18 -20 -20 -26 -7 -28 8 -2 17 -9 20 -15 3 -8 -8 -11 -39 -8
-24 1 -44 5 -44 8 0 2 14 16 30 30 31 26 43 56 13 32 -16 -13 -17 -12 -4 4 8
9 16 15 19 12 3 -3 11 0 18 6 17 14 6 35 -43 90 l-35 39 51 0 c28 0 51 -4 51
-9z m-1370 -103 c-1 -35 -3 -40 -11 -25 -6 10 -20 22 -32 27 l-22 9 23 0 c12
1 25 8 28 16 10 25 14 17 14 -27z m-1455 22 c3 -6 -1 -7 -9 -4 -18 7 -21 14
-7 14 6 0 13 -4 16 -10z m-40 -40 c-3 -5 -12 -10 -18 -10 -7 0 -6 4 3 10 19
12 23 12 15 0z m2970 0 c4 -6 1 -9 -7 -8 -7 2 -12 -3 -10 -10 1 -8 -2 -11 -8
-7 -8 5 -7 11 1 21 14 17 16 17 24 4z m-1009 -38 c-16 -4 -16 -5 1 -25 l18
-22 -22 19 c-16 13 -20 23 -13 31 5 6 6 16 2 21 -4 4 2 2 12 -6 18 -14 18 -15
2 -18z m-2021 8 c-3 -5 -12 -10 -18 -10 -7 0 -6 4 3 10 19 12 23 12 15 0z
m-105 -20 c-6 -11 -13 -20 -16 -20 -2 0 0 9 6 20 6 11 13 20 16 20 2 0 0 -9
-6 -20z m180 16 c0 -3 -4 -8 -10 -11 -5 -3 -10 -1 -10 4 0 6 5 11 10 11 6 0
10 -2 10 -4z m1531 -18 c-6 -18 -17 -23 -47 -24 -25 -1 -29 0 -11 3 15 2 33
13 40 24 16 26 28 24 18 -3z m-687 -19 c-3 -5 1 -9 8 -9 10 0 10 -2 -1 -9 -11
-7 -10 -10 5 -13 18 -4 17 -4 -2 -10 -17 -4 -20 -1 -19 21 1 14 -3 33 -9 41
-10 13 -9 13 6 1 10 -7 15 -17 12 -22z m1154 -14 c-3 -3 -9 2 -12 12 -6 14 -5
15 5 6 7 -7 10 -15 7 -18z m-2048 -30 c0 -1 -9 -5 -19 -8 -13 -3 -18 -1 -14 9
4 10 33 10 33 -1z m370 5 c-8 -5 -19 -10 -25 -10 -5 0 -3 5 5 10 8 5 20 10 25
10 6 0 3 -5 -5 -10z m2120 0 c0 -5 -2 -10 -4 -10 -3 0 -8 5 -11 10 -3 6 -1 10
4 10 6 0 11 -4 11 -10z m-1928 -22 c-7 -7 -12 -8 -12 -2 0 14 12 26 19 19 2
-3 -1 -11 -7 -17z m2452 14 c3 -5 -1 -9 -9 -9 -8 0 -12 4 -9 9 3 4 7 8 9 8 2
0 6 -4 9 -8z m-2537 -112 c-1 -11 -5 -20 -9 -20 -10 0 -10 4 -2 24 8 22 13 20
11 -4z m-37 -5 c11 -13 9 -15 -11 -13 -16 2 -24 -2 -24 -12 0 -10 8 -14 23
-12 15 1 22 -2 20 -10 -7 -20 -34 -21 -52 -3 -20 20 -20 29 0 49 19 20 28 20
44 1z m121 -15 c5 0 9 5 9 10 0 6 5 10 10 10 16 0 12 -67 -4 -73 -10 -4 -12 0
-9 14 3 10 0 19 -6 19 -6 0 -11 -7 -11 -16 0 -8 -4 -12 -10 -9 -12 7 -13 58
-2 69 4 4 8 1 10 -8 2 -9 8 -16 13 -16z m295 22 c6 -4 11 -23 12 -42 1 -33 0
-34 -15 -15 -15 19 -15 19 -8 -5 7 -22 6 -23 -9 -11 -23 19 -21 81 3 81 3 0
11 -4 17 -8z m699 -2 c3 -5 -2 -10 -12 -11 -10 0 -13 -3 -5 -6 17 -7 15 -21
-5 -26 -13 -3 -10 -5 7 -6 18 -1 21 -4 13 -12 -19 -19 -43 -2 -43 30 0 34 30
55 45 31z m252 -7 c2 -6 -4 -10 -14 -9 -10 0 -19 -7 -21 -18 -3 -15 0 -18 17
-13 24 6 29 -11 6 -19 -18 -7 -45 12 -45 32 0 31 48 54 57 27z m272 8 c7 -5
11 -15 9 -22 -3 -8 -1 -22 4 -31 5 -11 5 -18 -1 -18 -6 0 -15 8 -20 18 -10 16
-10 16 -11 -1 0 -10 -4 -15 -10 -12 -11 7 -14 58 -3 68 8 9 15 9 32 -2z m149
-5 c29 -17 -1 -75 -32 -63 -7 3 -15 21 -18 40 -3 31 -1 34 18 32 11 -1 26 -5
32 -9z m122 -26 c0 -16 -4 -32 -10 -35 -6 -4 -10 10 -10 35 0 25 4 39 10 35 6
-3 10 -19 10 -35z m123 8 c3 -8 6 -6 6 5 2 32 21 17 21 -17 0 -21 -6 -36 -16
-40 -8 -3 -13 -2 -10 3 3 4 -2 17 -10 27 -15 18 -15 18 -11 -3 4 -16 0 -23 -9
-23 -11 0 -14 11 -12 39 2 34 4 38 19 30 10 -5 20 -14 22 -21z m-1745 -3 c17
-38 15 -47 -9 -33 -17 10 -23 10 -26 1 -8 -22 -21 -14 -19 11 0 13 4 22 7 20
4 -2 9 3 13 11 8 22 21 18 34 -10z m252 0 c0 -14 6 -25 13 -25 8 0 7 -3 -3 -9
-8 -6 -18 -7 -22 -5 -12 7 -10 64 2 64 6 0 10 -11 10 -25z m170 9 c11 -13 10
-19 -8 -36 -21 -21 -22 -21 -41 -4 -16 14 -18 23 -10 37 12 23 42 25 59 3z
m133 9 c-7 -2 -14 -17 -14 -31 l-2 -27 -4 25 c-3 14 -10 28 -17 32 -6 4 3 7
19 7 17 0 24 -3 18 -6z m129 -23 c-2 -16 -8 -30 -12 -30 -4 0 -10 14 -12 30
-4 23 -1 30 12 30 13 0 16 -7 12 -30z m534 2 c10 -27 10 -28 -22 -28 -29 0
-31 2 -22 19 8 16 12 17 20 6 7 -10 7 -8 3 9 -9 32 9 27 21 -6z m224 14 c0 -3
-4 -8 -10 -11 -5 -3 -10 -1 -10 4 0 6 5 11 10 11 6 0 10 -2 10 -4z m-1800 -30
c0 -2 -6 -9 -14 -15 -11 -9 -16 -9 -22 0 -4 7 -3 9 4 5 6 -3 13 -2 17 4 6 10
15 14 15 6z m2050 -22 c0 -8 -19 -13 -24 -6 -3 5 1 9 9 9 8 0 15 -2 15 -3z
m-1514 -49 c-10 -8 -16 -20 -14 -27 4 -8 -4 -14 -19 -15 -25 -1 -25 -1 6 28
18 16 35 29 39 29 4 0 -1 -7 -12 -15z m-46 -79 c0 -3 -4 -8 -10 -11 -5 -3 -10
-1 -10 4 0 6 5 11 10 11 6 0 10 -2 10 -4z m50 -16 c0 -5 -2 -10 -4 -10 -3 0
-8 5 -11 10 -3 6 -1 10 4 10 6 0 11 -4 11 -10z m-37 -12 c-2 -5 -10 -8 -16 -8
-8 0 -12 -16 -11 -42 1 -24 5 -43 10 -43 5 0 8 8 7 18 -2 10 2 15 7 12 6 -3 8
-22 6 -41 -4 -33 7 -47 17 -21 3 7 6 4 6 -6 1 -10 5 -16 10 -13 14 9 40 -38
31 -55 -5 -9 -4 -21 2 -29 8 -12 9 -12 4 2 -3 10 -1 20 4 23 6 4 10 0 10 -7 0
-7 9 -19 20 -26 11 -7 20 -21 20 -33 0 -11 -4 -18 -8 -15 -4 2 -14 1 -21 -3
-11 -7 -11 -13 -1 -32 10 -17 -1 -11 -36 20 -27 24 -50 47 -50 52 -1 5 -3 12
-4 17 -1 4 -2 10 -1 15 0 4 -3 7 -9 7 -5 0 -10 5 -10 10 0 30 25 3 76 -83 8
-12 14 -15 18 -8 4 6 4 17 0 24 -14 21 -94 131 -121 164 -31 37 -42 78 -18 69
12 -4 14 0 9 18 -5 21 -2 23 24 22 17 -1 28 -4 25 -8z m41 -25 c4 -11 1 -11
-14 -3 -24 13 -25 17 -5 17 8 0 16 -6 19 -14z m65 -46 c1 -16 5 -26 10 -23 4
3 16 -1 26 -8 13 -10 15 -17 8 -30 -9 -17 -11 -17 -16 -2 -4 10 -3 15 3 11 6
-3 10 -2 10 4 0 5 -9 9 -19 8 -19 -1 -19 -2 0 -39 21 -41 28 -47 25 -22 -1 21
33 28 41 8 3 -8 9 -11 14 -8 5 3 8 0 7 -8 -2 -8 5 -12 17 -10 15 2 17 1 6 -6
-7 -6 -10 -15 -7 -21 12 -19 -5 -12 -26 12 l-20 22 16 -27 c24 -40 20 -45 -12
-15 -16 15 -31 25 -34 21 -14 -14 -58 84 -63 141 -4 42 -2 54 4 40 5 -11 10
-33 10 -48z m26 3 c3 -5 1 -10 -4 -10 -6 0 -11 5 -11 10 0 6 2 10 4 10 3 0 8
-4 11 -10z m-50 -69 c29 -63 18 -61 -15 3 -12 25 -26 43 -30 41 -4 -2 -7 2 -7
10 0 27 28 -1 52 -54z m-2205 45 c0 -2 -7 -9 -15 -16 -12 -10 -15 -10 -15 4 0
9 7 16 15 16 8 0 15 -2 15 -4z m5410 -12 c0 -14 -3 -14 -15 -4 -8 7 -15 14
-15 16 0 2 7 4 15 4 8 0 15 -7 15 -16z m-3342 -30 c6 3 15 -1 22 -9 10 -12 9
-15 -7 -15 -11 0 -28 10 -39 22 -14 17 -15 20 -2 9 9 -7 21 -10 26 -7z m-2018
-19 c0 -8 -7 -15 -16 -15 -14 0 -14 3 -4 15 7 8 14 15 16 15 2 0 4 -7 4 -15z
m5300 0 c10 -12 10 -15 -4 -15 -9 0 -16 7 -16 15 0 8 2 15 4 15 2 0 9 -7 16
-15z m-3355 -5 c-3 -5 -1 -10 4 -10 6 0 11 -5 11 -11 0 -8 -5 -8 -15 1 -17 14
-20 30 -4 30 5 0 7 -4 4 -10z m347 -94 c7 5 35 8 63 8 47 1 51 -1 47 -21 -4
-23 24 -57 57 -68 12 -3 21 -15 21 -26 0 -13 7 -19 21 -19 14 0 19 -5 17 -20
-2 -10 0 -19 5 -20 22 -1 25 2 20 20 -3 11 0 20 6 20 6 0 11 -7 11 -15 0 -8 5
-15 11 -15 14 0 6 -25 -9 -26 -7 -1 -15 -3 -19 -4 -29 -9 -106 7 -98 21 3 5 0
6 -8 3 -20 -7 -115 73 -165 139 -46 61 -56 89 -17 44 15 -17 30 -25 37 -21z
m2968 19 c0 -8 -7 -15 -15 -15 -16 0 -20 12 -8 23 11 12 23 8 23 -8z m-5230
-34 c0 -10 -7 -21 -15 -25 -11 -4 -15 1 -15 19 0 16 6 25 15 25 8 0 15 -9 15
-19z m2199 -41 c-9 -24 -7 -34 12 -59 12 -17 25 -29 27 -26 3 3 -4 15 -16 28
-24 25 -29 47 -10 47 6 0 9 -3 5 -6 -6 -6 7 -24 67 -91 21 -24 35 -43 30 -43
-5 0 -22 14 -37 32 l-29 33 22 -33 c20 -31 60 -61 60 -45 0 4 9 -3 20 -15 11
-12 20 -26 20 -32 0 -6 4 -8 10 -5 6 3 7 -1 4 -9 -3 -9 -1 -16 5 -16 6 0 11 5
11 12 0 6 3 8 6 5 4 -4 1 -13 -6 -22 -15 -18 1 -20 18 -3 9 9 12 9 12 0 0 -7
6 -12 14 -12 26 0 66 -40 62 -63 -1 -12 -1 -16 1 -9 5 15 19 16 28 2 3 -5 1
-10 -4 -10 -6 0 -11 -5 -11 -12 0 -6 3 -8 7 -5 3 4 12 2 20 -4 7 -7 38 -11 68
-11 30 0 55 -4 55 -9 0 -5 -8 -9 -17 -10 -10 0 -13 -3 -6 -5 7 -3 9 -12 6 -20
-3 -8 0 -14 6 -14 6 0 11 5 11 10 0 6 4 10 9 10 6 0 4 -10 -2 -22 -19 -35 -50
-68 -59 -62 -5 3 -8 2 -7 -3 5 -31 -7 -27 -51 18 -27 28 -50 57 -50 65 0 14
-5 26 -29 73 -11 19 -10 25 1 32 10 7 9 9 -4 9 -10 0 -18 7 -18 15 0 8 -5 15
-11 15 -5 0 -7 -6 -3 -12 4 -7 -2 -5 -13 5 -15 13 -22 15 -25 6 -5 -15 -109
88 -197 195 -39 48 -44 73 -24 109 11 20 21 -7 12 -33z m776 20 c-3 -5 -11
-10 -16 -10 -6 0 -7 5 -4 10 3 6 11 10 16 10 6 0 7 -4 4 -10z m-805 -21 c0 -6
-4 -7 -10 -4 -5 3 -10 11 -10 16 0 6 5 7 10 4 6 -3 10 -11 10 -16z m713 -3 c3
-8 -1 -17 -9 -20 -7 -3 -13 -2 -13 2 3 19 -2 25 -11 12 -8 -13 -10 -12 -10 3
0 21 35 23 43 3z m37 4 c0 -5 -2 -10 -4 -10 -3 0 -8 5 -11 10 -3 6 -1 10 4 10
6 0 11 -4 11 -10z m-94 -56 c-11 -7 -22 -12 -25 -9 -2 3 4 12 15 19 10 8 21
12 24 9 3 -2 -4 -11 -14 -19z m-353 -136 c59 -62 71 -80 57 -76 -8 2 -25 18
-38 36 -12 17 -29 32 -37 32 -21 0 -19 -18 3 -23 12 -3 12 -5 2 -5 -8 -1 -33
15 -55 34 -22 20 -33 33 -25 28 8 -4 23 -14 33 -23 16 -13 20 -13 27 -1 6 10
1 18 -20 28 -16 8 -37 23 -47 34 -26 29 71 -33 100 -64z m-383 33 c13 -11 12
-12 -6 -3 -12 7 -24 19 -28 29 -5 16 -4 16 7 3 7 -8 19 -21 27 -29z m31 12
c13 -16 12 -17 -3 -4 -10 7 -18 15 -18 17 0 8 8 3 21 -13z m240 -136 c5 -10
-13 6 -42 35 -29 29 -51 54 -48 55 2 1 -5 12 -16 25 -11 13 6 -4 38 -37 31
-33 62 -68 68 -78z m-2257 118 c3 -9 0 -15 -9 -15 -8 0 -15 7 -15 15 0 8 4 15
9 15 5 0 11 -7 15 -15z m2463 -65 c24 -23 48 -38 55 -34 7 4 8 3 4 -4 -5 -8
-13 -9 -24 -3 -25 14 -97 81 -87 81 4 0 28 -18 52 -40z m-336 3 l24 -26 -27
19 c-15 10 -28 22 -28 27 0 12 5 8 31 -20z m853 18 c3 -5 -1 -14 -8 -20 -12
-10 -14 -9 -11 6 2 10 4 19 4 21 2 5 10 2 15 -7z m-909 -31 c3 -6 -1 -7 -9 -4
-18 7 -21 14 -7 14 6 0 13 -4 16 -10z m1022 4 c-3 -3 -12 -4 -19 -1 -8 3 -5 6
6 6 11 1 17 -2 13 -5z m-57 -8 c0 -3 -4 -8 -10 -11 -5 -3 -10 -1 -10 4 0 6 5
11 10 11 6 0 10 -2 10 -4z m174 -25 c-2 -3 -12 3 -22 13 -16 17 -16 18 5 5 12
-7 20 -15 17 -18z m-209 1 c-3 -3 -11 0 -18 7 -9 10 -8 11 6 5 10 -3 15 -9 12
-12z m-855 -24 c0 -5 -9 -4 -20 2 -11 6 -20 12 -20 14 0 2 9 2 20 -1 11 -3 20
-9 20 -15z m320 2 c0 -5 -4 -10 -10 -10 -5 0 -10 5 -10 10 0 6 5 10 10 10 6 0
10 -4 10 -10z m768 -15 c-3 -3 -9 2 -12 12 -6 14 -5 15 5 6 7 -7 10 -15 7 -18z
m-1028 -66 c0 -5 -4 -9 -8 -9 -5 0 -9 7 -9 15 0 8 4 12 9 9 4 -3 8 -9 8 -15z
m1070 -43 c0 -18 -17 8 -24 34 l-7 25 15 -25 c9 -14 15 -29 16 -34z m-924 14
c8 0 14 -7 14 -15 0 -8 -3 -15 -6 -15 -11 0 -34 29 -33 42 0 10 2 10 6 1 2 -7
11 -13 19 -13z m-181 0 c3 -5 -1 -10 -10 -10 -9 0 -13 5 -10 10 3 6 8 10 10
10 2 0 7 -4 10 -10z m70 -35 c26 -25 32 -49 16 -59 -5 -4 -7 4 -4 16 4 19 3
20 -6 8 -9 -12 -11 -11 -11 8 0 13 -4 20 -10 17 -5 -3 -10 1 -10 9 0 9 -4 16
-10 16 -5 0 -10 -5 -10 -12 0 -6 -3 -9 -6 -5 -8 7 4 27 17 27 5 0 21 -11 34
-25z m1055 -10 c0 -12 -19 -12 -23 0 -4 9 -1 12 9 8 7 -3 14 -7 14 -8z m-935
-34 c-3 -6 -11 -11 -17 -11 -6 0 -6 6 2 15 14 17 26 13 15 -4z m-15 -63 c0
-11 -48 16 -59 34 -8 13 -3 12 24 -5 19 -12 34 -25 35 -29z m-2262 31 c-2 -6
-8 -10 -13 -10 -5 0 -11 4 -13 10 -2 6 4 11 13 11 9 0 15 -5 13 -11z m2369 -5
c-3 -3 -12 -4 -19 -1 -8 3 -5 6 6 6 11 1 17 -2 13 -5z m-77 -28 c0 -2 -7 -9
-15 -16 -13 -11 -14 -10 -9 4 5 14 24 23 24 12z m25 -16 c3 -5 1 -10 -4 -10
-6 0 -11 5 -11 10 0 6 2 10 4 10 3 0 8 -4 11 -10z m-5 -40 c0 -5 -2 -10 -4
-10 -3 0 -8 5 -11 10 -3 6 -1 10 4 10 6 0 11 -4 11 -10z m15 -51 c3 -14 0 -38
-5 -54 -10 -29 -10 -29 -6 8 3 20 1 37 -4 37 -4 0 -6 9 -3 20 7 25 12 21 18
-11z m57 -36 c10 -13 0 -63 -13 -63 -5 0 -8 26 -8 58 1 31 4 48 6 37 3 -11 9
-25 15 -32z m-104 -78 c-3 -3 -9 2 -12 12 -6 14 -5 15 5 6 7 -7 10 -15 7 -18z
m29 3 c-3 -8 -6 -5 -6 6 -1 11 2 17 5 13 3 -3 4 -12 1 -19z m150 -8 c-14 -16
-31 -46 -37 -65 -7 -20 -14 -34 -17 -32 -7 8 27 80 49 104 31 33 34 28 5 -7z
m-90 -12 c-3 -8 -6 -5 -6 6 -1 11 2 17 5 13 3 -3 4 -12 1 -19z m-67 -12 c0 -8
-4 -17 -8 -20 -4 -2 -8 4 -8 15 0 10 4 19 8 19 4 0 8 -6 8 -14z m2820 -51 c13
-14 21 -27 18 -30 -2 -3 -17 9 -33 25 -16 17 -24 30 -19 30 6 0 21 -11 34 -25z
m-2820 -27 c0 -36 -10 -32 -14 6 -2 14 1 26 5 26 5 0 9 -14 9 -32z m93 -43
c-7 -41 16 -81 49 -88 21 -4 21 -4 -3 -6 -15 0 -31 5 -37 12 -16 19 -25 64
-18 92 9 37 16 30 9 -10z m926 -15 c11 -24 11 -24 -3 -6 -9 11 -16 24 -16 30
0 12 5 7 19 -24z m-1008 -43 c-10 -9 -11 -8 -5 6 3 10 9 15 12 12 3 -3 0 -11
-7 -18z m1029 -7 c-6 -11 -12 -20 -14 -20 -2 0 -2 9 1 20 3 11 9 20 15 20 5 0
4 -9 -2 -20z m-16 -55 c-4 -8 -8 -15 -10 -15 -2 0 -4 7 -4 15 0 8 4 15 10 15
5 0 7 -7 4 -15z m-7 -47 c-3 -8 -6 -5 -6 6 -1 11 2 17 5 13 3 -3 4 -12 1 -19z
m1850 -10 c-3 -7 -5 -2 -5 12 0 14 2 19 5 13 2 -7 2 -19 0 -25z m-2663 1 c8
-8 5 -9 -14 -4 -42 12 -59 26 -26 20 16 -2 34 -9 40 -16z m-141 -14 c-7 -21
-13 -19 -13 6 0 11 4 18 10 14 5 -3 7 -12 3 -20z m28 -78 c-10 -9 -11 -8 -5 6
3 10 9 15 12 12 3 -3 0 -11 -7 -18z m149 -2 c19 -7 28 -14 20 -14 -8 0 -28 6
-45 14 -39 17 -21 18 25 0z m100 -25 c8 -5 11 -12 7 -16 -3 -4 -12 -2 -19 3
-7 6 -22 13 -33 16 -16 4 -16 5 5 6 14 0 32 -3 40 -9z m2503 -20 c-4 -17 -8
-18 -20 -8 -13 10 -13 13 4 19 10 4 19 8 20 8 0 1 -1 -8 -4 -19z m-1829 -59
c4 -6 -5 -28 -22 -49 -16 -20 -32 -47 -36 -59 -4 -11 -13 -27 -21 -33 -14 -11
36 91 56 116 5 7 7 31 4 55 -4 36 -3 38 4 13 4 -17 11 -36 15 -43z m-957 14
c0 -8 -4 -12 -9 -9 -5 3 -6 10 -3 15 9 13 12 11 12 -6z m2718 -5 c16 -18 16
-20 2 -20 -10 0 -17 5 -17 10 0 6 -7 10 -16 10 -8 0 -12 5 -9 10 9 15 20 12
40 -10z m-2395 -25 c17 -9 30 -18 30 -21 0 -4 -59 23 -69 32 -10 9 13 3 39
-11z m-276 -11 c5 -14 4 -15 -9 -4 -17 14 -19 20 -6 20 5 0 12 -7 15 -16z
m231 -14 l20 -9 -20 0 c-11 0 -27 4 -35 9 -13 9 -13 10 0 9 8 0 24 -4 35 -9z
m-141 -31 c-3 -5 4 -9 16 -9 19 0 28 -3 76 -28 12 -6 32 -8 45 -6 24 6 24 6
-1 -8 -17 -10 -27 -11 -32 -4 -4 6 -8 7 -8 3 0 -5 -15 1 -34 12 -38 24 -66 27
-84 9 -7 -7 -12 -8 -12 -2 0 6 6 16 13 23 10 10 9 11 -3 8 -8 -2 -12 -2 -7 0
4 3 5 8 2 13 -3 4 4 6 15 3 11 -3 17 -9 14 -14z m201 -49 c-3 -5 -12 -10 -18
-10 -7 0 -6 4 3 10 19 12 23 12 15 0z m-232 -25 c-3 -9 -8 -14 -10 -11 -3 3
-2 9 2 15 9 16 15 13 8 -4z m87 4 c0 -5 5 -7 12 -3 7 4 8 3 4 -4 -4 -7 6 -20
26 -32 18 -11 28 -20 22 -20 -16 0 -77 43 -82 58 -2 6 1 12 7 12 6 0 11 -5 11
-11z m2140 1 c0 -5 -7 -10 -15 -10 -8 0 -15 5 -15 10 0 6 7 10 15 10 8 0 15
-4 15 -10z m-1653 -37 c-3 -10 -5 -4 -5 12 0 17 2 24 5 18 2 -7 2 -21 0 -30z
m167 28 c3 -5 -2 -15 -12 -22 -15 -12 -16 -12 -5 2 7 9 10 19 6 22 -3 4 -4 7
0 7 3 0 8 -4 11 -9z m-554 -21 c0 -5 -2 -10 -4 -10 -3 0 -8 5 -11 10 -3 6 -1
10 4 10 6 0 11 -4 11 -10z m40 -21 c0 -8 5 -8 15 1 9 8 15 9 15 2 0 -20 -22
-24 -38 -8 -11 10 -12 16 -4 16 7 0 12 -5 12 -11z m264 -23 c-3 -9 -10 -16
-15 -16 -5 0 -4 9 3 20 14 22 21 20 12 -4z m1546 14 c0 -5 -7 -10 -16 -10 -8
0 -12 5 -9 10 3 6 10 10 16 10 5 0 9 -4 9 -10z m-1909 -17 c13 -17 13 -17 -6
-3 -11 8 -22 16 -24 17 -2 2 0 3 6 3 6 0 17 -8 24 -17z m72 10 c-7 -2 -19 -2
-25 0 -7 3 -2 5 12 5 14 0 19 -2 13 -5z m258 -7 c-8 -10 -9 -16 -1 -21 6 -4
-3 -16 -22 -29 -55 -37 -62 -40 -54 -28 4 7 3 12 -2 12 -6 0 -12 -7 -16 -15
-3 -8 -12 -12 -20 -9 -12 5 -13 9 -3 19 7 7 14 11 16 9 2 -2 12 3 21 11 10 9
21 15 26 14 27 -5 46 2 41 15 -3 7 0 19 6 25 16 16 22 14 8 -3z m-93 -16 c-7
-11 -14 -16 -16 -10 -2 6 -8 8 -13 4 -5 -3 -9 -3 -9 1 0 4 31 20 48 24 1 1 -3
-8 -10 -19z m-113 0 c4 -6 -1 -7 -11 -3 -13 5 -15 3 -9 -7 5 -8 4 -11 -3 -6
-6 3 -15 -2 -21 -11 -10 -17 -10 -17 -11 1 0 12 -5 16 -16 12 -9 -3 -12 -2 -9
5 4 5 15 7 26 4 11 -4 19 -2 19 4 0 14 27 14 35 1z m55 -14 c0 -2 -9 -2 -20 1
-11 3 -20 9 -20 15 0 5 9 4 20 -2 11 -6 20 -12 20 -14z m246 12 c4 -7 4 -10
-1 -6 -4 4 -15 2 -24 -5 -14 -11 -14 -10 -2 6 16 20 18 21 27 5z m44 -31 c0
-5 -4 -5 -10 -2 -5 3 -10 14 -10 23 0 15 2 15 10 2 5 -8 10 -19 10 -23z m25
23 c3 -6 -1 -7 -9 -4 -18 7 -21 14 -7 14 6 0 13 -4 16 -10z m1362 -6 c-3 -3
-12 -4 -19 -1 -8 3 -5 6 6 6 11 1 17 -2 13 -5z m-1679 -31 c-10 -2 -18 -9 -18
-15 0 -6 -3 -9 -6 -5 -10 10 6 27 24 26 15 -1 15 -2 0 -6z m1059 -209 c-3 -3
-12 -4 -19 -1 -8 3 -5 6 6 6 11 1 17 -2 13 -5z m-87 -44 c0 -5 -5 -10 -11 -10
-5 0 -7 5 -4 10 3 6 8 10 11 10 2 0 4 -4 4 -10z m-25 -30 c3 -5 1 -10 -4 -10
-6 0 -11 5 -11 10 0 6 2 10 4 10 3 0 8 -4 11 -10z"/>
<path d="M2818 3973 c7 -3 16 -2 19 1 4 3 -2 6 -13 5 -11 0 -14 -3 -6 -6z"/>
<path d="M2900 3883 c0 -12 38 -48 45 -41 3 2 -6 15 -20 28 -14 13 -25 19 -25
13z"/>
<path d="M3220 3560 c0 -5 5 -10 11 -10 5 0 7 5 4 10 -3 6 -8 10 -11 10 -2 0
-4 -4 -4 -10z"/>
<path d="M3307 3450 c10 -11 19 -20 21 -20 1 0 -2 9 -8 20 -6 11 -15 20 -20
20 -6 0 -2 -9 7 -20z"/>
<path d="M3133 3482 l0 -25 13 24 c7 13 13 18 14 12 0 -7 5 -13 12 -13 9 0 9
3 0 12 -22 22 -39 17 -39 -10z"/>
<path d="M1292 2845 c-3 -44 -2 -45 27 -45 25 0 32 5 37 27 9 33 -6 57 -37 61
-22 3 -24 -1 -27 -43z m33 -3 c-11 -9 -14 -10 -7 -2 15 18 16 34 0 24 -7 -5
-8 -3 -3 5 5 9 10 10 18 2 8 -8 6 -16 -8 -29z"/>
<path d="M2303 2874 c-22 -22 -25 -32 -21 -79 3 -30 10 -61 17 -69 17 -20 75
-21 90 -2 36 43 30 132 -12 161 -30 21 -44 19 -74 -11z"/>
<path d="M3560 2520 c0 -11 5 -20 10 -20 6 0 10 9 10 20 0 11 -4 20 -10 20 -5
0 -10 -9 -10 -20z"/>
<path d="M2464 2529 c-10 -17 13 -36 27 -22 12 12 4 33 -11 33 -5 0 -12 -5
-16 -11z"/>
<path d="M2260 2160 c0 -5 5 -10 10 -10 6 0 10 5 10 10 0 6 -4 10 -10 10 -5 0
-10 -4 -10 -10z"/>
<path d="M2326 2075 c4 -8 8 -15 10 -15 2 0 4 7 4 15 0 8 -4 15 -10 15 -5 0
-7 -7 -4 -15z"/>
<path d="M2251 2077 c2 -1 13 -9 24 -17 19 -14 19 -14 6 3 -7 9 -18 17 -24 17
-6 0 -8 -1 -6 -3z"/>
<path d="M2450 2059 c0 -6 7 -17 15 -25 8 -9 15 -11 15 -5 0 5 -5 13 -11 17
-8 4 -7 9 2 15 11 7 10 9 -3 9 -10 0 -18 -5 -18 -11z"/>
<path d="M2524 1984 c3 -21 33 -39 33 -20 0 8 -7 12 -15 8 -10 -3 -13 -1 -8 6
3 6 2 13 -3 16 -5 4 -8 -1 -7 -10z"/>
<path d="M2546 1795 c9 -14 18 -25 20 -25 2 0 -2 11 -8 25 -6 14 -15 25 -20
25 -5 0 -1 -11 8 -25z"/>
<path d="M2700 1640 c0 -5 9 -10 20 -10 11 0 20 5 20 10 0 6 -9 10 -20 10 -11
0 -20 -4 -20 -10z"/>
<path d="M2809 1633 c-1 -5 -1 -11 0 -15 0 -5 -3 -8 -9 -8 -5 0 -1 -9 11 -21
11 -11 22 -19 24 -17 7 7 -7 48 -17 48 -5 0 -6 5 -3 10 3 6 4 10 1 10 -3 0 -7
-3 -7 -7z"/>
<path d="M2713 1607 c0 -18 34 -19 41 -1 4 10 -2 14 -18 14 -12 0 -23 -6 -23
-13z"/>
<path d="M2760 1580 c0 -11 2 -20 4 -20 2 0 6 9 9 20 3 11 1 20 -4 20 -5 0 -9
-9 -9 -20z"/>
<path d="M2795 1578 c-10 -26 -2 -43 12 -26 7 8 8 19 3 28 -8 12 -10 12 -15
-2z"/>
<path d="M3235 460 c-3 -5 -1 -10 4 -10 6 0 11 5 11 10 0 6 -2 10 -4 10 -3 0
-8 -4 -11 -10z"/>
</g>
</svg>
