<svg width="231" height="45" viewBox="0 0 231 45" fill="none" xmlns="http://www.w3.org/2000/svg">
<path d="M11.304 3.02423V26.2442H9.144V3.02423H0.72V1.11623H19.728V3.02423H11.304ZM26.1883 26.2442V24.4442H29.8603V2.91623H26.1883V1.11623H35.6923V2.91623H32.0203V24.4442H35.6923V26.2442H26.1883ZM64.8397 3.88823H64.6957L56.0197 19.2602L47.3437 3.88823H47.1997V26.2442H45.1117V1.11623H48.0637L56.0197 15.2642H56.1277L64.0837 1.11623H66.9277V26.2442H64.8397V3.88823ZM105.485 26.2442L102.749 18.4322H92.0571L89.3211 26.2442H87.1611L96.0531 1.11623H98.8251L107.753 26.2442H105.485ZM97.4571 3.16823H97.3131L92.5971 16.5602H102.173L97.4571 3.16823ZM123.751 26.6762C120.631 26.6762 118.219 25.5962 116.515 23.4362C114.811 21.2522 113.959 18.0242 113.959 13.7522C113.959 9.50423 114.811 6.26423 116.515 4.03223C118.219 1.80023 120.631 0.684231 123.751 0.684231C125.767 0.684231 127.459 1.16423 128.827 2.12423C130.219 3.08423 131.299 4.39223 132.067 6.04823L130.303 7.09223C129.751 5.72423 128.911 4.64423 127.783 3.85223C126.679 3.03623 125.335 2.62823 123.751 2.62823C121.399 2.62823 119.563 3.46823 118.243 5.14823C116.923 6.82823 116.263 9.22823 116.263 12.3482V15.1922C116.263 18.2882 116.923 20.6522 118.243 22.2842C119.563 23.9162 121.399 24.7322 123.751 24.7322C125.431 24.7322 126.835 24.3122 127.963 23.4722C129.091 22.6082 129.931 21.4562 130.483 20.0162L132.247 21.0602C131.503 22.7882 130.411 24.1562 128.971 25.1642C127.531 26.1722 125.791 26.6762 123.751 26.6762ZM148.674 3.02423V26.2442H146.514V3.02423H138.09V1.11623H157.098V3.02423H148.674ZM166.938 1.11623V16.6322C166.938 18.0242 167.046 19.2362 167.262 20.2682C167.478 21.2762 167.838 22.1162 168.342 22.7882C168.846 23.4362 169.518 23.9282 170.358 24.2642C171.198 24.5762 172.23 24.7322 173.454 24.7322C174.678 24.7322 175.698 24.5762 176.514 24.2642C177.354 23.9282 178.026 23.4362 178.53 22.7882C179.058 22.1162 179.43 21.2762 179.646 20.2682C179.862 19.2362 179.97 18.0242 179.97 16.6322V1.11623H182.13V16.1642C182.13 18.0122 181.974 19.5962 181.662 20.9162C181.35 22.2362 180.846 23.3282 180.15 24.1922C179.478 25.0322 178.578 25.6562 177.45 26.0642C176.346 26.4722 174.99 26.6762 173.382 26.6762C171.774 26.6762 170.418 26.4722 169.314 26.0642C168.21 25.6562 167.322 25.0322 166.65 24.1922C165.978 23.3282 165.498 22.2362 165.21 20.9162C164.922 19.5962 164.778 18.0122 164.778 16.1642V1.11623H166.938ZM192.641 26.2442V1.11623H207.329V3.02423H194.801V12.5282H206.717V14.4362H194.801V24.3362H207.329V26.2442H192.641ZM216.913 26.2442V1.11623H219.073V24.3362H230.161V26.2442H216.913ZM1.188 33.8682H3.852C4.932 33.8682 5.764 34.2162 6.348 34.9122C6.94 35.6082 7.236 36.6562 7.236 38.0562C7.236 39.4562 6.94 40.5042 6.348 41.2002C5.764 41.8962 4.932 42.2442 3.852 42.2442H1.188V33.8682ZM3.864 41.6082C4.688 41.6082 5.328 41.3442 5.784 40.8162C6.24 40.2802 6.468 39.5442 6.468 38.6082V37.5042C6.468 36.5682 6.24 35.8362 5.784 35.3082C5.328 34.7722 4.688 34.5042 3.864 34.5042H1.908V41.6082H3.864ZM11.9042 42.3882C11.4962 42.3882 11.1242 42.3162 10.7882 42.1722C10.4602 42.0282 10.1762 41.8202 9.93619 41.5482C9.70419 41.2682 9.52419 40.9282 9.39619 40.5282C9.27619 40.1282 9.21619 39.6762 9.21619 39.1722C9.21619 38.6682 9.27619 38.2202 9.39619 37.8282C9.52419 37.4282 9.70419 37.0922 9.93619 36.8202C10.1762 36.5402 10.4602 36.3282 10.7882 36.1842C11.1162 36.0322 11.4842 35.9562 11.8922 35.9562C12.2842 35.9562 12.6402 36.0322 12.9602 36.1842C13.2802 36.3282 13.5522 36.5322 13.7762 36.7962C14.0002 37.0602 14.1722 37.3802 14.2922 37.7562C14.4202 38.1242 14.4842 38.5322 14.4842 38.9802V39.3042H9.93619V39.6042C9.93619 39.9242 9.98019 40.2202 10.0682 40.4922C10.1642 40.7562 10.2962 40.9842 10.4642 41.1762C10.6402 41.3682 10.8522 41.5202 11.1002 41.6322C11.3482 41.7362 11.6282 41.7882 11.9402 41.7882C12.8362 41.7882 13.4562 41.3762 13.8002 40.5522L14.3042 40.8882C14.1122 41.3442 13.8082 41.7082 13.3922 41.9802C12.9842 42.2522 12.4882 42.3882 11.9042 42.3882ZM11.8922 36.5322C11.5962 36.5322 11.3282 36.5882 11.0882 36.7002C10.8482 36.8042 10.6402 36.9522 10.4642 37.1442C10.2962 37.3362 10.1642 37.5682 10.0682 37.8402C9.98019 38.1042 9.93619 38.3962 9.93619 38.7162V38.7762H13.7402V38.6802C13.7402 38.3602 13.6962 38.0682 13.6082 37.8042C13.5202 37.5322 13.3922 37.3042 13.2242 37.1202C13.0642 36.9362 12.8682 36.7922 12.6362 36.6882C12.4122 36.5842 12.1642 36.5322 11.8922 36.5322ZM18.5638 42.3882C18.0278 42.3882 17.5678 42.2882 17.1838 42.0882C16.8078 41.8882 16.4798 41.5962 16.1998 41.2122L16.7038 40.8162C16.9598 41.1522 17.2398 41.4002 17.5438 41.5602C17.8478 41.7202 18.2038 41.8002 18.6118 41.8002C19.0838 41.8002 19.4478 41.7002 19.7038 41.5002C19.9598 41.3002 20.0878 41.0122 20.0878 40.6362C20.0878 40.3082 19.9878 40.0522 19.7878 39.8682C19.5958 39.6762 19.2758 39.5482 18.8278 39.4842L18.3238 39.4002C18.0438 39.3602 17.7878 39.3002 17.5558 39.2202C17.3238 39.1402 17.1238 39.0322 16.9558 38.8962C16.7958 38.7602 16.6678 38.5962 16.5718 38.4042C16.4838 38.2042 16.4398 37.9642 16.4398 37.6842C16.4398 37.3962 16.4918 37.1442 16.5958 36.9282C16.7078 36.7122 16.8558 36.5322 17.0398 36.3882C17.2238 36.2442 17.4438 36.1362 17.6998 36.0642C17.9558 35.9922 18.2318 35.9562 18.5278 35.9562C19.0398 35.9562 19.4598 36.0442 19.7878 36.2202C20.1158 36.3962 20.3958 36.6242 20.6278 36.9042L20.1718 37.3242C20.0118 37.1322 19.7958 36.9562 19.5238 36.7962C19.2598 36.6282 18.9158 36.5442 18.4918 36.5442C18.0518 36.5442 17.7078 36.6402 17.4598 36.8322C17.2198 37.0242 17.0998 37.2962 17.0998 37.6482C17.0998 38.0082 17.2078 38.2682 17.4238 38.4282C17.6478 38.5882 17.9798 38.7042 18.4198 38.7762L18.9118 38.8482C19.5358 38.9442 19.9958 39.1322 20.2918 39.4122C20.5958 39.6842 20.7478 40.0682 20.7478 40.5642C20.7478 41.1402 20.5518 41.5882 20.1598 41.9082C19.7758 42.2282 19.2438 42.3882 18.5638 42.3882ZM23.4786 34.4322C23.3186 34.4322 23.1986 34.3922 23.1186 34.3122C23.0466 34.2322 23.0106 34.1282 23.0106 34.0002V33.8802C23.0106 33.7522 23.0466 33.6482 23.1186 33.5682C23.1986 33.4882 23.3186 33.4482 23.4786 33.4482C23.6386 33.4482 23.7546 33.4882 23.8266 33.5682C23.9066 33.6482 23.9466 33.7522 23.9466 33.8802V34.0002C23.9466 34.1282 23.9066 34.2322 23.8266 34.3122C23.7546 34.3922 23.6386 34.4322 23.4786 34.4322ZM23.1426 36.1002H23.8266V42.2442H23.1426V36.1002ZM31.7005 42.9642C31.7005 43.5882 31.4485 44.0482 30.9445 44.3442C30.4485 44.6402 29.7165 44.7882 28.7485 44.7882C27.8125 44.7882 27.1365 44.6522 26.7205 44.3802C26.3045 44.1082 26.0965 43.7322 26.0965 43.2522C26.0965 42.9002 26.1885 42.6202 26.3725 42.4122C26.5565 42.2042 26.8165 42.0522 27.1525 41.9562V41.8602C26.7685 41.7082 26.5765 41.4282 26.5765 41.0202C26.5765 40.7162 26.6765 40.4842 26.8765 40.3242C27.0765 40.1642 27.3245 40.0442 27.6205 39.9642V39.9162C27.2605 39.7562 26.9805 39.5162 26.7805 39.1962C26.5805 38.8762 26.4805 38.4922 26.4805 38.0442C26.4805 37.7322 26.5325 37.4482 26.6365 37.1922C26.7405 36.9362 26.8885 36.7162 27.0805 36.5322C27.2805 36.3482 27.5165 36.2082 27.7885 36.1122C28.0685 36.0082 28.3765 35.9562 28.7125 35.9562C29.1845 35.9562 29.5965 36.0562 29.9485 36.2562V35.9562C29.9485 35.7722 29.9925 35.6242 30.0805 35.5122C30.1685 35.3922 30.3125 35.3322 30.5125 35.3322H31.5685V35.9322H30.3205V36.5202C30.5285 36.7042 30.6885 36.9282 30.8005 37.1922C30.9125 37.4482 30.9685 37.7322 30.9685 38.0442C30.9685 38.3562 30.9125 38.6402 30.8005 38.8962C30.6965 39.1522 30.5445 39.3762 30.3445 39.5682C30.1525 39.7522 29.9165 39.8962 29.6365 40.0002C29.3645 40.0962 29.0605 40.1442 28.7245 40.1442C28.6125 40.1442 28.5045 40.1362 28.4005 40.1202C28.2965 40.1042 28.1925 40.0882 28.0885 40.0722C27.8245 40.1442 27.6045 40.2442 27.4285 40.3722C27.2605 40.4922 27.1765 40.6562 27.1765 40.8642C27.1765 41.2322 27.5045 41.4162 28.1605 41.4162H29.5885C30.3325 41.4162 30.8685 41.5562 31.1965 41.8362C31.5325 42.1082 31.7005 42.4842 31.7005 42.9642ZM31.0405 43.0122C31.0405 42.7162 30.9325 42.4802 30.7165 42.3042C30.5085 42.1362 30.1325 42.0522 29.5885 42.0522H27.5965C27.3325 42.1402 27.1245 42.2722 26.9725 42.4482C26.8205 42.6242 26.7445 42.8442 26.7445 43.1082C26.7445 43.4282 26.8765 43.6922 27.1405 43.9002C27.4045 44.1162 27.8045 44.2242 28.3405 44.2242H29.1085C29.7085 44.2242 30.1805 44.1242 30.5245 43.9242C30.8685 43.7322 31.0405 43.4282 31.0405 43.0122ZM28.7245 39.5922C29.1965 39.5922 29.5645 39.4762 29.8285 39.2442C30.1005 39.0042 30.2365 38.6682 30.2365 38.2362V37.8522C30.2365 37.4282 30.1005 37.1002 29.8285 36.8682C29.5645 36.6282 29.1965 36.5082 28.7245 36.5082C28.2445 36.5082 27.8725 36.6282 27.6085 36.8682C27.3445 37.1002 27.2125 37.4282 27.2125 37.8522V38.2362C27.2125 38.6682 27.3445 39.0042 27.6085 39.2442C27.8805 39.4762 28.2525 39.5922 28.7245 39.5922ZM33.6121 42.2442V36.1002H34.2961V37.0722H34.3321C34.4681 36.7522 34.6801 36.4882 34.9681 36.2802C35.2561 36.0642 35.6481 35.9562 36.1441 35.9562C36.8001 35.9562 37.3081 36.1602 37.6681 36.5682C38.0361 36.9682 38.2201 37.5442 38.2201 38.2962V42.2442H37.5361V38.4162C37.5361 37.7922 37.4001 37.3282 37.1281 37.0242C36.8641 36.7202 36.4761 36.5682 35.9641 36.5682C35.7481 36.5682 35.5401 36.5962 35.3401 36.6522C35.1401 36.7082 34.9601 36.7922 34.8001 36.9042C34.6481 37.0162 34.5241 37.1602 34.4281 37.3362C34.3401 37.5042 34.2961 37.7002 34.2961 37.9242V42.2442H33.6121ZM48.3818 41.2602H48.3458C48.1858 41.6042 47.9498 41.8802 47.6378 42.0882C47.3338 42.2882 46.9458 42.3882 46.4738 42.3882C45.6818 42.3882 45.0618 42.1082 44.6138 41.5482C44.1658 40.9882 43.9418 40.1962 43.9418 39.1722C43.9418 38.1482 44.1658 37.3562 44.6138 36.7962C45.0618 36.2362 45.6818 35.9562 46.4738 35.9562C46.9458 35.9562 47.3378 36.0602 47.6498 36.2682C47.9618 36.4682 48.1938 36.7402 48.3458 37.0842H48.3818V33.3642H49.0658V42.2442H48.3818V41.2602ZM46.6298 41.7762C46.8698 41.7762 47.0938 41.7442 47.3018 41.6802C47.5178 41.6162 47.7058 41.5242 47.8658 41.4042C48.0258 41.2762 48.1498 41.1282 48.2378 40.9602C48.3338 40.7842 48.3818 40.5882 48.3818 40.3722V37.9362C48.3818 37.7362 48.3338 37.5522 48.2378 37.3842C48.1498 37.2162 48.0258 37.0722 47.8658 36.9522C47.7058 36.8322 47.5178 36.7402 47.3018 36.6762C47.0938 36.6042 46.8698 36.5682 46.6298 36.5682C46.0138 36.5682 45.5338 36.7642 45.1898 37.1562C44.8458 37.5482 44.6738 38.0762 44.6738 38.7402V39.6042C44.6738 40.2682 44.8458 40.7962 45.1898 41.1882C45.5338 41.5802 46.0138 41.7762 46.6298 41.7762ZM52.2364 34.4322C52.0764 34.4322 51.9564 34.3922 51.8764 34.3122C51.8044 34.2322 51.7684 34.1282 51.7684 34.0002V33.8802C51.7684 33.7522 51.8044 33.6482 51.8764 33.5682C51.9564 33.4882 52.0764 33.4482 52.2364 33.4482C52.3964 33.4482 52.5124 33.4882 52.5844 33.5682C52.6644 33.6482 52.7044 33.7522 52.7044 33.8802V34.0002C52.7044 34.1282 52.6644 34.2322 52.5844 34.3122C52.5124 34.3922 52.3964 34.4322 52.2364 34.4322ZM51.9004 36.1002H52.5844V42.2442H51.9004V36.1002ZM60.4583 42.9642C60.4583 43.5882 60.2063 44.0482 59.7023 44.3442C59.2063 44.6402 58.4743 44.7882 57.5063 44.7882C56.5703 44.7882 55.8943 44.6522 55.4783 44.3802C55.0623 44.1082 54.8543 43.7322 54.8543 43.2522C54.8543 42.9002 54.9463 42.6202 55.1303 42.4122C55.3143 42.2042 55.5743 42.0522 55.9103 41.9562V41.8602C55.5263 41.7082 55.3343 41.4282 55.3343 41.0202C55.3343 40.7162 55.4343 40.4842 55.6343 40.3242C55.8343 40.1642 56.0823 40.0442 56.3783 39.9642V39.9162C56.0183 39.7562 55.7383 39.5162 55.5383 39.1962C55.3383 38.8762 55.2383 38.4922 55.2383 38.0442C55.2383 37.7322 55.2903 37.4482 55.3943 37.1922C55.4983 36.9362 55.6463 36.7162 55.8383 36.5322C56.0383 36.3482 56.2743 36.2082 56.5463 36.1122C56.8263 36.0082 57.1343 35.9562 57.4703 35.9562C57.9423 35.9562 58.3543 36.0562 58.7063 36.2562V35.9562C58.7063 35.7722 58.7503 35.6242 58.8383 35.5122C58.9263 35.3922 59.0703 35.3322 59.2703 35.3322H60.3263V35.9322H59.0783V36.5202C59.2863 36.7042 59.4463 36.9282 59.5583 37.1922C59.6703 37.4482 59.7263 37.7322 59.7263 38.0442C59.7263 38.3562 59.6703 38.6402 59.5583 38.8962C59.4543 39.1522 59.3023 39.3762 59.1023 39.5682C58.9103 39.7522 58.6743 39.8962 58.3943 40.0002C58.1223 40.0962 57.8183 40.1442 57.4823 40.1442C57.3703 40.1442 57.2623 40.1362 57.1583 40.1202C57.0543 40.1042 56.9503 40.0882 56.8463 40.0722C56.5823 40.1442 56.3623 40.2442 56.1863 40.3722C56.0183 40.4922 55.9343 40.6562 55.9343 40.8642C55.9343 41.2322 56.2623 41.4162 56.9183 41.4162H58.3463C59.0903 41.4162 59.6263 41.5562 59.9543 41.8362C60.2903 42.1082 60.4583 42.4842 60.4583 42.9642ZM59.7983 43.0122C59.7983 42.7162 59.6903 42.4802 59.4743 42.3042C59.2663 42.1362 58.8903 42.0522 58.3463 42.0522H56.3543C56.0903 42.1402 55.8823 42.2722 55.7303 42.4482C55.5783 42.6242 55.5023 42.8442 55.5023 43.1082C55.5023 43.4282 55.6343 43.6922 55.8983 43.9002C56.1623 44.1162 56.5623 44.2242 57.0983 44.2242H57.8663C58.4663 44.2242 58.9383 44.1242 59.2823 43.9242C59.6263 43.7322 59.7983 43.4282 59.7983 43.0122ZM57.4823 39.5922C57.9543 39.5922 58.3223 39.4762 58.5863 39.2442C58.8583 39.0042 58.9943 38.6682 58.9943 38.2362V37.8522C58.9943 37.4282 58.8583 37.1002 58.5863 36.8682C58.3223 36.6282 57.9543 36.5082 57.4823 36.5082C57.0023 36.5082 56.6303 36.6282 56.3663 36.8682C56.1023 37.1002 55.9703 37.4282 55.9703 37.8522V38.2362C55.9703 38.6682 56.1023 39.0042 56.3663 39.2442C56.6383 39.4762 57.0103 39.5922 57.4823 39.5922ZM62.7059 34.4322C62.5459 34.4322 62.4259 34.3922 62.3459 34.3122C62.2739 34.2322 62.2379 34.1282 62.2379 34.0002V33.8802C62.2379 33.7522 62.2739 33.6482 62.3459 33.5682C62.4259 33.4882 62.5459 33.4482 62.7059 33.4482C62.8659 33.4482 62.9819 33.4882 63.0539 33.5682C63.1339 33.6482 63.1739 33.7522 63.1739 33.8802V34.0002C63.1739 34.1282 63.1339 34.2322 63.0539 34.3122C62.9819 34.3922 62.8659 34.4322 62.7059 34.4322ZM62.3699 36.1002H63.0539V42.2442H62.3699V36.1002ZM66.9439 42.2442C66.6959 42.2442 66.5079 42.1762 66.3799 42.0402C66.2519 41.9042 66.1879 41.7202 66.1879 41.4882V36.7002H65.1199V36.1002H65.8159C65.9839 36.1002 66.0959 36.0682 66.1519 36.0042C66.2159 35.9322 66.2479 35.8082 66.2479 35.6322V34.3842H66.8719V36.1002H68.2639V36.7002H66.8719V41.6442H68.1679V42.2442H66.9439ZM74.7314 42.2442C74.4674 42.2442 74.2754 42.1762 74.1554 42.0402C74.0354 41.9042 73.9674 41.7202 73.9514 41.4882V41.2722H73.8914C73.7554 41.6162 73.5314 41.8882 73.2194 42.0882C72.9074 42.2882 72.5114 42.3882 72.0314 42.3882C71.3834 42.3882 70.8834 42.2322 70.5314 41.9202C70.1794 41.6002 70.0034 41.1522 70.0034 40.5762C70.0034 40.0322 70.1954 39.6002 70.5794 39.2802C70.9714 38.9602 71.6114 38.8002 72.4994 38.8002H73.9154V38.0802C73.9154 37.0642 73.3914 36.5562 72.3434 36.5562C71.9354 36.5562 71.5954 36.6442 71.3234 36.8202C71.0514 36.9882 70.8314 37.2322 70.6634 37.5522L70.2314 37.1922C70.3994 36.8322 70.6554 36.5362 70.9994 36.3042C71.3514 36.0722 71.8074 35.9562 72.3674 35.9562C73.0874 35.9562 73.6394 36.1362 74.0234 36.4962C74.4074 36.8562 74.5994 37.3602 74.5994 38.0082V41.6442H75.4274V42.2442H74.7314ZM72.1274 41.8002C72.3754 41.8002 72.6074 41.7682 72.8234 41.7042C73.0394 41.6402 73.2274 41.5522 73.3874 41.4402C73.5554 41.3202 73.6834 41.1802 73.7714 41.0202C73.8674 40.8522 73.9154 40.6642 73.9154 40.4562V39.3162H72.4754C71.8594 39.3162 71.4114 39.4162 71.1314 39.6162C70.8594 39.8082 70.7234 40.0762 70.7234 40.4202V40.7082C70.7234 41.0682 70.8514 41.3402 71.1074 41.5242C71.3634 41.7082 71.7034 41.8002 72.1274 41.8002ZM78.1915 42.2442C77.9435 42.2442 77.7555 42.1762 77.6275 42.0402C77.4995 41.9042 77.4355 41.7242 77.4355 41.5002V33.3642H78.1195V41.6442H79.0675V42.2442H78.1915ZM88.6075 41.2602H88.5715C88.4115 41.6042 88.1755 41.8802 87.8635 42.0882C87.5595 42.2882 87.1715 42.3882 86.6995 42.3882C85.9075 42.3882 85.2875 42.1082 84.8395 41.5482C84.3915 40.9882 84.1675 40.1962 84.1675 39.1722C84.1675 38.1482 84.3915 37.3562 84.8395 36.7962C85.2875 36.2362 85.9075 35.9562 86.6995 35.9562C87.1715 35.9562 87.5635 36.0602 87.8755 36.2682C88.1875 36.4682 88.4195 36.7402 88.5715 37.0842H88.6075V33.3642H89.2915V42.2442H88.6075V41.2602ZM86.8555 41.7762C87.0955 41.7762 87.3195 41.7442 87.5275 41.6802C87.7435 41.6162 87.9315 41.5242 88.0915 41.4042C88.2515 41.2762 88.3755 41.1282 88.4635 40.9602C88.5595 40.7842 88.6075 40.5882 88.6075 40.3722V37.9362C88.6075 37.7362 88.5595 37.5522 88.4635 37.3842C88.3755 37.2162 88.2515 37.0722 88.0915 36.9522C87.9315 36.8322 87.7435 36.7402 87.5275 36.6762C87.3195 36.6042 87.0955 36.5682 86.8555 36.5682C86.2395 36.5682 85.7595 36.7642 85.4155 37.1562C85.0715 37.5482 84.8995 38.0762 84.8995 38.7402V39.6042C84.8995 40.2682 85.0715 40.7962 85.4155 41.1882C85.7595 41.5802 86.2395 41.7762 86.8555 41.7762ZM94.3222 42.3882C93.9142 42.3882 93.5422 42.3162 93.2062 42.1722C92.8782 42.0282 92.5942 41.8202 92.3542 41.5482C92.1222 41.2682 91.9422 40.9282 91.8142 40.5282C91.6942 40.1282 91.6342 39.6762 91.6342 39.1722C91.6342 38.6682 91.6942 38.2202 91.8142 37.8282C91.9422 37.4282 92.1222 37.0922 92.3542 36.8202C92.5942 36.5402 92.8782 36.3282 93.2062 36.1842C93.5342 36.0322 93.9022 35.9562 94.3102 35.9562C94.7022 35.9562 95.0582 36.0322 95.3782 36.1842C95.6982 36.3282 95.9702 36.5322 96.1942 36.7962C96.4182 37.0602 96.5902 37.3802 96.7102 37.7562C96.8382 38.1242 96.9022 38.5322 96.9022 38.9802V39.3042H92.3542V39.6042C92.3542 39.9242 92.3982 40.2202 92.4862 40.4922C92.5822 40.7562 92.7142 40.9842 92.8822 41.1762C93.0582 41.3682 93.2702 41.5202 93.5182 41.6322C93.7662 41.7362 94.0462 41.7882 94.3582 41.7882C95.2542 41.7882 95.8742 41.3762 96.2182 40.5522L96.7222 40.8882C96.5302 41.3442 96.2262 41.7082 95.8102 41.9802C95.4022 42.2522 94.9062 42.3882 94.3222 42.3882ZM94.3102 36.5322C94.0142 36.5322 93.7462 36.5882 93.5062 36.7002C93.2662 36.8042 93.0582 36.9522 92.8822 37.1442C92.7142 37.3362 92.5822 37.5682 92.4862 37.8402C92.3982 38.1042 92.3542 38.3962 92.3542 38.7162V38.7762H96.1582V38.6802C96.1582 38.3602 96.1142 38.0682 96.0262 37.8042C95.9382 37.5322 95.8102 37.3042 95.6422 37.1202C95.4822 36.9362 95.2862 36.7922 95.0542 36.6882C94.8302 36.5842 94.5822 36.5322 94.3102 36.5322ZM100.982 42.3882C100.446 42.3882 99.9858 42.2882 99.6018 42.0882C99.2258 41.8882 98.8978 41.5962 98.6178 41.2122L99.1218 40.8162C99.3778 41.1522 99.6578 41.4002 99.9618 41.5602C100.266 41.7202 100.622 41.8002 101.03 41.8002C101.502 41.8002 101.866 41.7002 102.122 41.5002C102.378 41.3002 102.506 41.0122 102.506 40.6362C102.506 40.3082 102.406 40.0522 102.206 39.8682C102.014 39.6762 101.694 39.5482 101.246 39.4842L100.742 39.4002C100.462 39.3602 100.206 39.3002 99.9738 39.2202C99.7418 39.1402 99.5418 39.0322 99.3738 38.8962C99.2138 38.7602 99.0858 38.5962 98.9898 38.4042C98.9018 38.2042 98.8578 37.9642 98.8578 37.6842C98.8578 37.3962 98.9098 37.1442 99.0138 36.9282C99.1258 36.7122 99.2738 36.5322 99.4578 36.3882C99.6418 36.2442 99.8618 36.1362 100.118 36.0642C100.374 35.9922 100.65 35.9562 100.946 35.9562C101.458 35.9562 101.878 36.0442 102.206 36.2202C102.534 36.3962 102.814 36.6242 103.046 36.9042L102.59 37.3242C102.43 37.1322 102.214 36.9562 101.942 36.7962C101.678 36.6282 101.334 36.5442 100.91 36.5442C100.47 36.5442 100.126 36.6402 99.8778 36.8322C99.6378 37.0242 99.5178 37.2962 99.5178 37.6482C99.5178 38.0082 99.6258 38.2682 99.8418 38.4282C100.066 38.5882 100.398 38.7042 100.838 38.7762L101.33 38.8482C101.954 38.9442 102.414 39.1322 102.71 39.4122C103.014 39.6842 103.166 40.0682 103.166 40.5642C103.166 41.1402 102.97 41.5882 102.578 41.9082C102.194 42.2282 101.662 42.3882 100.982 42.3882ZM113.22 42.2442C112.956 42.2442 112.764 42.1762 112.644 42.0402C112.524 41.9042 112.456 41.7202 112.44 41.4882V41.2722H112.38C112.244 41.6162 112.02 41.8882 111.708 42.0882C111.396 42.2882 111 42.3882 110.52 42.3882C109.872 42.3882 109.372 42.2322 109.02 41.9202C108.668 41.6002 108.492 41.1522 108.492 40.5762C108.492 40.0322 108.684 39.6002 109.068 39.2802C109.46 38.9602 110.1 38.8002 110.988 38.8002H112.404V38.0802C112.404 37.0642 111.88 36.5562 110.832 36.5562C110.424 36.5562 110.084 36.6442 109.812 36.8202C109.54 36.9882 109.32 37.2322 109.152 37.5522L108.72 37.1922C108.888 36.8322 109.144 36.5362 109.488 36.3042C109.84 36.0722 110.296 35.9562 110.856 35.9562C111.576 35.9562 112.128 36.1362 112.512 36.4962C112.896 36.8562 113.088 37.3602 113.088 38.0082V41.6442H113.916V42.2442H113.22ZM110.616 41.8002C110.864 41.8002 111.096 41.7682 111.312 41.7042C111.528 41.6402 111.716 41.5522 111.876 41.4402C112.044 41.3202 112.172 41.1802 112.26 41.0202C112.356 40.8522 112.404 40.6642 112.404 40.4562V39.3162H110.964C110.348 39.3162 109.9 39.4162 109.62 39.6162C109.348 39.8082 109.212 40.0762 109.212 40.4202V40.7082C109.212 41.0682 109.34 41.3402 109.596 41.5242C109.852 41.7082 110.192 41.8002 110.616 41.8002ZM118.085 42.3882C117.237 42.3882 116.581 42.1082 116.117 41.5482C115.661 40.9882 115.433 40.1962 115.433 39.1722C115.433 38.1482 115.661 37.3562 116.117 36.7962C116.581 36.2362 117.237 35.9562 118.085 35.9562C118.653 35.9562 119.113 36.0802 119.465 36.3282C119.817 36.5762 120.085 36.9042 120.269 37.3122L119.693 37.6002C119.549 37.2642 119.345 37.0082 119.081 36.8322C118.825 36.6562 118.493 36.5682 118.085 36.5682C117.461 36.5682 116.985 36.7682 116.657 37.1682C116.329 37.5682 116.165 38.0922 116.165 38.7402V39.6042C116.165 40.2522 116.329 40.7762 116.657 41.1762C116.985 41.5762 117.461 41.7762 118.085 41.7762C118.509 41.7762 118.865 41.6842 119.153 41.5002C119.441 41.3162 119.673 41.0522 119.849 40.7082L120.353 41.0442C120.153 41.4522 119.865 41.7802 119.489 42.0282C119.121 42.2682 118.653 42.3882 118.085 42.3882ZM123.534 42.2442C123.286 42.2442 123.098 42.1762 122.97 42.0402C122.842 41.9042 122.778 41.7202 122.778 41.4882V36.7002H121.71V36.1002H122.406C122.574 36.1002 122.686 36.0682 122.742 36.0042C122.806 35.9322 122.838 35.8082 122.838 35.6322V34.3842H123.462V36.1002H124.854V36.7002H123.462V41.6442H124.758V42.2442H123.534ZM130.937 41.2722H130.889C130.833 41.4162 130.757 41.5562 130.661 41.6922C130.565 41.8282 130.445 41.9482 130.301 42.0522C130.157 42.1482 129.985 42.2282 129.785 42.2922C129.593 42.3562 129.365 42.3882 129.101 42.3882C128.445 42.3882 127.933 42.1882 127.565 41.7882C127.197 41.3802 127.013 40.8002 127.013 40.0482V36.1002H127.697V39.9162C127.697 40.5482 127.833 41.0162 128.105 41.3202C128.377 41.6242 128.769 41.7762 129.281 41.7762C129.497 41.7762 129.701 41.7482 129.893 41.6922C130.093 41.6362 130.269 41.5522 130.421 41.4402C130.581 41.3282 130.705 41.1882 130.793 41.0202C130.889 40.8442 130.937 40.6402 130.937 40.4082V36.1002H131.621V42.2442H130.937V41.2722ZM138.683 42.2442C138.419 42.2442 138.227 42.1762 138.107 42.0402C137.987 41.9042 137.919 41.7202 137.903 41.4882V41.2722H137.843C137.707 41.6162 137.483 41.8882 137.171 42.0882C136.859 42.2882 136.463 42.3882 135.983 42.3882C135.335 42.3882 134.835 42.2322 134.483 41.9202C134.131 41.6002 133.955 41.1522 133.955 40.5762C133.955 40.0322 134.147 39.6002 134.531 39.2802C134.923 38.9602 135.563 38.8002 136.451 38.8002H137.867V38.0802C137.867 37.0642 137.343 36.5562 136.295 36.5562C135.887 36.5562 135.547 36.6442 135.275 36.8202C135.003 36.9882 134.783 37.2322 134.615 37.5522L134.183 37.1922C134.351 36.8322 134.607 36.5362 134.951 36.3042C135.303 36.0722 135.759 35.9562 136.319 35.9562C137.039 35.9562 137.591 36.1362 137.975 36.4962C138.359 36.8562 138.551 37.3602 138.551 38.0082V41.6442H139.379V42.2442H138.683ZM136.079 41.8002C136.327 41.8002 136.559 41.7682 136.775 41.7042C136.991 41.6402 137.179 41.5522 137.339 41.4402C137.507 41.3202 137.635 41.1802 137.723 41.0202C137.819 40.8522 137.867 40.6642 137.867 40.4562V39.3162H136.427C135.811 39.3162 135.363 39.4162 135.083 39.6162C134.811 39.8082 134.675 40.0762 134.675 40.4202V40.7082C134.675 41.0682 134.803 41.3402 135.059 41.5242C135.315 41.7082 135.655 41.8002 136.079 41.8002ZM142.143 42.2442C141.895 42.2442 141.707 42.1762 141.579 42.0402C141.451 41.9042 141.387 41.7242 141.387 41.5002V33.3642H142.071V41.6442H143.019V42.2442H142.143ZM145.487 34.4322C145.327 34.4322 145.207 34.3922 145.127 34.3122C145.055 34.2322 145.019 34.1282 145.019 34.0002V33.8802C145.019 33.7522 145.055 33.6482 145.127 33.5682C145.207 33.4882 145.327 33.4482 145.487 33.4482C145.647 33.4482 145.763 33.4882 145.835 33.5682C145.915 33.6482 145.955 33.7522 145.955 33.8802V34.0002C145.955 34.1282 145.915 34.2322 145.835 34.3122C145.763 34.3922 145.647 34.4322 145.487 34.4322ZM145.151 36.1002H145.835V42.2442H145.151V36.1002ZM149.725 42.2442C149.477 42.2442 149.289 42.1762 149.161 42.0402C149.033 41.9042 148.969 41.7202 148.969 41.4882V36.7002H147.901V36.1002H148.597C148.765 36.1002 148.877 36.0682 148.933 36.0042C148.997 35.9322 149.029 35.8082 149.029 35.6322V34.3842H149.653V36.1002H151.045V36.7002H149.653V41.6442H150.949V42.2442H149.725ZM155.438 42.3882C155.03 42.3882 154.658 42.3162 154.322 42.1722C153.994 42.0282 153.71 41.8202 153.47 41.5482C153.238 41.2682 153.058 40.9282 152.93 40.5282C152.81 40.1282 152.75 39.6762 152.75 39.1722C152.75 38.6682 152.81 38.2202 152.93 37.8282C153.058 37.4282 153.238 37.0922 153.47 36.8202C153.71 36.5402 153.994 36.3282 154.322 36.1842C154.65 36.0322 155.018 35.9562 155.426 35.9562C155.818 35.9562 156.174 36.0322 156.494 36.1842C156.814 36.3282 157.086 36.5322 157.31 36.7962C157.534 37.0602 157.706 37.3802 157.826 37.7562C157.954 38.1242 158.018 38.5322 158.018 38.9802V39.3042H153.47V39.6042C153.47 39.9242 153.514 40.2202 153.602 40.4922C153.698 40.7562 153.83 40.9842 153.998 41.1762C154.174 41.3682 154.386 41.5202 154.634 41.6322C154.882 41.7362 155.162 41.7882 155.474 41.7882C156.37 41.7882 156.99 41.3762 157.334 40.5522L157.838 40.8882C157.646 41.3442 157.342 41.7082 156.926 41.9802C156.518 42.2522 156.022 42.3882 155.438 42.3882ZM155.426 36.5322C155.13 36.5322 154.862 36.5882 154.622 36.7002C154.382 36.8042 154.174 36.9522 153.998 37.1442C153.83 37.3362 153.698 37.5682 153.602 37.8402C153.514 38.1042 153.47 38.3962 153.47 38.7162V38.7762H157.274V38.6802C157.274 38.3602 157.23 38.0682 157.142 37.8042C157.054 37.5322 156.926 37.3042 156.758 37.1202C156.598 36.9362 156.402 36.7922 156.17 36.6882C155.946 36.5842 155.698 36.5322 155.426 36.5322ZM155.402 35.2122L154.958 34.9962L156.098 33.0282L156.722 33.3402L155.402 35.2122ZM162.097 42.3882C161.561 42.3882 161.101 42.2882 160.717 42.0882C160.341 41.8882 160.013 41.5962 159.733 41.2122L160.237 40.8162C160.493 41.1522 160.773 41.4002 161.077 41.5602C161.381 41.7202 161.737 41.8002 162.145 41.8002C162.617 41.8002 162.981 41.7002 163.237 41.5002C163.493 41.3002 163.621 41.0122 163.621 40.6362C163.621 40.3082 163.521 40.0522 163.321 39.8682C163.129 39.6762 162.809 39.5482 162.361 39.4842L161.857 39.4002C161.577 39.3602 161.321 39.3002 161.089 39.2202C160.857 39.1402 160.657 39.0322 160.489 38.8962C160.329 38.7602 160.201 38.5962 160.105 38.4042C160.017 38.2042 159.973 37.9642 159.973 37.6842C159.973 37.3962 160.025 37.1442 160.129 36.9282C160.241 36.7122 160.389 36.5322 160.573 36.3882C160.757 36.2442 160.977 36.1362 161.233 36.0642C161.489 35.9922 161.765 35.9562 162.061 35.9562C162.573 35.9562 162.993 36.0442 163.321 36.2202C163.649 36.3962 163.929 36.6242 164.161 36.9042L163.705 37.3242C163.545 37.1322 163.329 36.9562 163.057 36.7962C162.793 36.6282 162.449 36.5442 162.025 36.5442C161.585 36.5442 161.241 36.6402 160.993 36.8322C160.753 37.0242 160.633 37.2962 160.633 37.6482C160.633 38.0082 160.741 38.2682 160.957 38.4282C161.181 38.5882 161.513 38.7042 161.953 38.7762L162.445 38.8482C163.069 38.9442 163.529 39.1322 163.825 39.4122C164.129 39.6842 164.281 40.0682 164.281 40.5642C164.281 41.1402 164.085 41.5882 163.693 41.9082C163.309 42.2282 162.777 42.3882 162.097 42.3882ZM172.272 42.3882C171.424 42.3882 170.768 42.1082 170.304 41.5482C169.848 40.9882 169.62 40.1962 169.62 39.1722C169.62 38.1482 169.848 37.3562 170.304 36.7962C170.768 36.2362 171.424 35.9562 172.272 35.9562C172.84 35.9562 173.3 36.0802 173.652 36.3282C174.004 36.5762 174.272 36.9042 174.456 37.3122L173.88 37.6002C173.736 37.2642 173.532 37.0082 173.268 36.8322C173.012 36.6562 172.68 36.5682 172.272 36.5682C171.648 36.5682 171.172 36.7682 170.844 37.1682C170.516 37.5682 170.352 38.0922 170.352 38.7402V39.6042C170.352 40.2522 170.516 40.7762 170.844 41.1762C171.172 41.5762 171.648 41.7762 172.272 41.7762C172.696 41.7762 173.052 41.6842 173.34 41.5002C173.628 41.3162 173.86 41.0522 174.036 40.7082L174.54 41.0442C174.34 41.4522 174.052 41.7802 173.676 42.0282C173.308 42.2682 172.84 42.3882 172.272 42.3882ZM180.505 41.2722H180.457C180.401 41.4162 180.325 41.5562 180.229 41.6922C180.133 41.8282 180.013 41.9482 179.869 42.0522C179.725 42.1482 179.553 42.2282 179.353 42.2922C179.161 42.3562 178.933 42.3882 178.669 42.3882C178.013 42.3882 177.501 42.1882 177.133 41.7882C176.765 41.3802 176.581 40.8002 176.581 40.0482V36.1002H177.265V39.9162C177.265 40.5482 177.401 41.0162 177.673 41.3202C177.945 41.6242 178.337 41.7762 178.849 41.7762C179.065 41.7762 179.269 41.7482 179.461 41.6922C179.661 41.6362 179.837 41.5522 179.989 41.4402C180.149 41.3282 180.273 41.1882 180.361 41.0202C180.457 40.8442 180.505 40.6402 180.505 40.4082V36.1002H181.189V42.2442H180.505V41.2722ZM184.783 42.2442C184.535 42.2442 184.347 42.1762 184.219 42.0402C184.091 41.9042 184.027 41.7242 184.027 41.5002V33.3642H184.711V41.6442H185.659V42.2442H184.783ZM188.788 42.2442C188.54 42.2442 188.352 42.1762 188.224 42.0402C188.096 41.9042 188.032 41.7202 188.032 41.4882V36.7002H186.964V36.1002H187.66C187.828 36.1002 187.94 36.0682 187.996 36.0042C188.06 35.9322 188.092 35.8082 188.092 35.6322V34.3842H188.716V36.1002H190.108V36.7002H188.716V41.6442H190.012V42.2442H188.788ZM196.192 41.2722H196.144C196.088 41.4162 196.012 41.5562 195.916 41.6922C195.82 41.8282 195.7 41.9482 195.556 42.0522C195.412 42.1482 195.24 42.2282 195.04 42.2922C194.848 42.3562 194.62 42.3882 194.356 42.3882C193.7 42.3882 193.188 42.1882 192.82 41.7882C192.452 41.3802 192.268 40.8002 192.268 40.0482V36.1002H192.952V39.9162C192.952 40.5482 193.088 41.0162 193.36 41.3202C193.632 41.6242 194.024 41.7762 194.536 41.7762C194.752 41.7762 194.956 41.7482 195.148 41.6922C195.348 41.6362 195.524 41.5522 195.676 41.4402C195.836 41.3282 195.96 41.1882 196.048 41.0202C196.144 40.8442 196.192 40.6402 196.192 40.4082V36.1002H196.876V42.2442H196.192V41.2722ZM199.714 42.2442V36.1002H200.398V37.2042H200.446C200.566 36.9162 200.77 36.6602 201.058 36.4362C201.346 36.2122 201.754 36.1002 202.282 36.1002H202.69V36.7722H202.15C201.638 36.7722 201.218 36.8842 200.89 37.1082C200.562 37.3322 200.398 37.6442 200.398 38.0442V42.2442H199.714ZM206.764 42.3882C206.356 42.3882 205.984 42.3162 205.648 42.1722C205.32 42.0282 205.036 41.8202 204.796 41.5482C204.564 41.2682 204.384 40.9282 204.256 40.5282C204.136 40.1282 204.076 39.6762 204.076 39.1722C204.076 38.6682 204.136 38.2202 204.256 37.8282C204.384 37.4282 204.564 37.0922 204.796 36.8202C205.036 36.5402 205.32 36.3282 205.648 36.1842C205.976 36.0322 206.344 35.9562 206.752 35.9562C207.144 35.9562 207.5 36.0322 207.82 36.1842C208.14 36.3282 208.412 36.5322 208.636 36.7962C208.86 37.0602 209.032 37.3802 209.152 37.7562C209.28 38.1242 209.344 38.5322 209.344 38.9802V39.3042H204.796V39.6042C204.796 39.9242 204.84 40.2202 204.928 40.4922C205.024 40.7562 205.156 40.9842 205.324 41.1762C205.5 41.3682 205.712 41.5202 205.96 41.6322C206.208 41.7362 206.488 41.7882 206.8 41.7882C207.696 41.7882 208.316 41.3762 208.66 40.5522L209.164 40.8882C208.972 41.3442 208.668 41.7082 208.252 41.9802C207.844 42.2522 207.348 42.3882 206.764 42.3882ZM206.752 36.5322C206.456 36.5322 206.188 36.5882 205.948 36.7002C205.708 36.8042 205.5 36.9522 205.324 37.1442C205.156 37.3362 205.024 37.5682 204.928 37.8402C204.84 38.1042 204.796 38.3962 204.796 38.7162V38.7762H208.6V38.6802C208.6 38.3602 208.556 38.0682 208.468 37.8042C208.38 37.5322 208.252 37.3042 208.084 37.1202C207.924 36.9362 207.728 36.7922 207.496 36.6882C207.272 36.5842 207.024 36.5322 206.752 36.5322ZM212.439 42.2442C212.191 42.2442 212.003 42.1762 211.875 42.0402C211.747 41.9042 211.683 41.7242 211.683 41.5002V33.3642H212.367V41.6442H213.315V42.2442H212.439ZM216.121 42.2442C215.873 42.2442 215.685 42.1762 215.557 42.0402C215.429 41.9042 215.365 41.7242 215.365 41.5002V33.3642H216.049V41.6442H216.997V42.2442H216.121ZM221.325 42.3882C220.917 42.3882 220.545 42.3162 220.209 42.1722C219.881 42.0282 219.597 41.8202 219.357 41.5482C219.125 41.2682 218.945 40.9282 218.817 40.5282C218.697 40.1282 218.637 39.6762 218.637 39.1722C218.637 38.6682 218.697 38.2202 218.817 37.8282C218.945 37.4282 219.125 37.0922 219.357 36.8202C219.597 36.5402 219.881 36.3282 220.209 36.1842C220.537 36.0322 220.905 35.9562 221.313 35.9562C221.705 35.9562 222.061 36.0322 222.381 36.1842C222.701 36.3282 222.973 36.5322 223.197 36.7962C223.421 37.0602 223.593 37.3802 223.713 37.7562C223.841 38.1242 223.905 38.5322 223.905 38.9802V39.3042H219.357V39.6042C219.357 39.9242 219.401 40.2202 219.489 40.4922C219.585 40.7562 219.717 40.9842 219.885 41.1762C220.061 41.3682 220.273 41.5202 220.521 41.6322C220.769 41.7362 221.049 41.7882 221.361 41.7882C222.257 41.7882 222.877 41.3762 223.221 40.5522L223.725 40.8882C223.533 41.3442 223.229 41.7082 222.813 41.9802C222.405 42.2522 221.909 42.3882 221.325 42.3882ZM221.313 36.5322C221.017 36.5322 220.749 36.5882 220.509 36.7002C220.269 36.8042 220.061 36.9522 219.885 37.1442C219.717 37.3362 219.585 37.5682 219.489 37.8402C219.401 38.1042 219.357 38.3962 219.357 38.7162V38.7762H223.161V38.6802C223.161 38.3602 223.117 38.0682 223.029 37.8042C222.941 37.5322 222.813 37.3042 222.645 37.1202C222.485 36.9362 222.289 36.7922 222.057 36.6882C221.833 36.5842 221.585 36.5322 221.313 36.5322ZM227.985 42.3882C227.449 42.3882 226.989 42.2882 226.605 42.0882C226.229 41.8882 225.901 41.5962 225.621 41.2122L226.125 40.8162C226.381 41.1522 226.661 41.4002 226.965 41.5602C227.269 41.7202 227.625 41.8002 228.033 41.8002C228.505 41.8002 228.869 41.7002 229.125 41.5002C229.381 41.3002 229.509 41.0122 229.509 40.6362C229.509 40.3082 229.409 40.0522 229.209 39.8682C229.017 39.6762 228.697 39.5482 228.249 39.4842L227.745 39.4002C227.465 39.3602 227.209 39.3002 226.977 39.2202C226.745 39.1402 226.545 39.0322 226.377 38.8962C226.217 38.7602 226.089 38.5962 225.993 38.4042C225.905 38.2042 225.861 37.9642 225.861 37.6842C225.861 37.3962 225.913 37.1442 226.017 36.9282C226.129 36.7122 226.277 36.5322 226.461 36.3882C226.645 36.2442 226.865 36.1362 227.121 36.0642C227.377 35.9922 227.653 35.9562 227.949 35.9562C228.461 35.9562 228.881 36.0442 229.209 36.2202C229.537 36.3962 229.817 36.6242 230.049 36.9042L229.593 37.3242C229.433 37.1322 229.217 36.9562 228.945 36.7962C228.681 36.6282 228.337 36.5442 227.913 36.5442C227.473 36.5442 227.129 36.6402 226.881 36.8322C226.641 37.0242 226.521 37.2962 226.521 37.6482C226.521 38.0082 226.629 38.2682 226.845 38.4282C227.069 38.5882 227.401 38.7042 227.841 38.7762L228.333 38.8482C228.957 38.9442 229.417 39.1322 229.713 39.4122C230.017 39.6842 230.169 40.0682 230.169 40.5642C230.169 41.1402 229.973 41.5882 229.581 41.9082C229.197 42.2282 228.665 42.3882 227.985 42.3882Z" fill="white"/>
</svg>
